<?xml version="1.0" encoding="UTF-8" standalone="no"?>
<!-- Created with Inkscape (http://www.inkscape.org/) -->

<svg
   width="82.549263mm"
   height="78.801414mm"
   viewBox="0 0 82.549263 78.801415"
   version="1.1"
   id="svg1"
   sodipodi:docname="dm-drc-zoomed.svg"
   xml:space="preserve"
   inkscape:version="1.3.2 (091e20e, 2023-11-25)"
   xmlns:inkscape="http://www.inkscape.org/namespaces/inkscape"
   xmlns:sodipodi="http://sodipodi.sourceforge.net/DTD/sodipodi-0.dtd"
   xmlns:xlink="http://www.w3.org/1999/xlink"
   xmlns="http://www.w3.org/2000/svg"
   xmlns:svg="http://www.w3.org/2000/svg"><sodipodi:namedview
     id="namedview1"
     pagecolor="#ffffff"
     bordercolor="#000000"
     borderopacity="0.25"
     inkscape:showpageshadow="2"
     inkscape:pageopacity="0.0"
     inkscape:pagecheckerboard="0"
     inkscape:deskcolor="#d1d1d1"
     inkscape:document-units="mm"
     inkscape:zoom="1.990107"
     inkscape:cx="122.60647"
     inkscape:cy="177.3774"
     inkscape:window-width="1416"
     inkscape:window-height="863"
     inkscape:window-x="524"
     inkscape:window-y="1477"
     inkscape:window-maximized="0"
     inkscape:current-layer="layer1" /><defs
     id="defs1"><clipPath
       clipPathUnits="userSpaceOnUse"
       id="clipPath2"><path
         d="M 0,0 H 942.13438 V 530.97969 H 0 Z"
         transform="translate(0,1.0065628e-5)"
         id="path2" /></clipPath><clipPath
       clipPathUnits="userSpaceOnUse"
       id="clipPath3"><path
         d="M 0,0 H 942.13438 V 530.97969 H 0 Z"
         transform="translate(0,1.0065628e-5)"
         id="path3" /></clipPath><clipPath
       clipPathUnits="userSpaceOnUse"
       id="clipPath4"><path
         d="M 80.434375,66.73125 H 917.43438 v 446.4 H 80.434375 Z"
         transform="translate(0,1.0065628e-5)"
         id="path4" /></clipPath><clipPath
       clipPathUnits="userSpaceOnUse"
       id="clipPath5"><path
         d="M 0,0 H 942.13438 V 530.97969 H 0 Z"
         transform="translate(0,1.0065628e-5)"
         id="path5" /></clipPath><clipPath
       clipPathUnits="userSpaceOnUse"
       id="clipPath6"><path
         d="M 0,0 H 942.13438 V 530.97969 H 0 Z"
         transform="translate(0,1.0065628e-5)"
         id="path6" /></clipPath><clipPath
       clipPathUnits="userSpaceOnUse"
       id="clipPath7"><path
         d="M 0,0 H 942.13438 V 530.97969 H 0 Z"
         transform="matrix(1,0,0,-1,-62.934376,40.012491)"
         id="path7" /></clipPath><clipPath
       clipPathUnits="userSpaceOnUse"
       id="clipPath8"><path
         d="M 80.434375,66.73125 H 917.43438 v 446.4 H 80.434375 Z"
         transform="translate(0,1.0065628e-5)"
         id="path8" /></clipPath><clipPath
       clipPathUnits="userSpaceOnUse"
       id="clipPath9"><path
         d="M 0,0 H 942.13438 V 530.97969 H 0 Z"
         transform="translate(0,1.0065628e-5)"
         id="path9" /></clipPath><clipPath
       clipPathUnits="userSpaceOnUse"
       id="clipPath10"><path
         d="M 0,0 H 942.13438 V 530.97969 H 0 Z"
         transform="translate(0,1.0065628e-5)"
         id="path10" /></clipPath><clipPath
       clipPathUnits="userSpaceOnUse"
       id="clipPath11"><path
         d="M 0,0 H 942.13438 V 530.97969 H 0 Z"
         transform="matrix(1,0,0,-1,-230.33437,40.012491)"
         id="path11" /></clipPath><clipPath
       clipPathUnits="userSpaceOnUse"
       id="clipPath12"><path
         d="M 80.434375,66.73125 H 917.43438 v 446.4 H 80.434375 Z"
         transform="translate(0,1.0065628e-5)"
         id="path12" /></clipPath><clipPath
       clipPathUnits="userSpaceOnUse"
       id="clipPath13"><path
         d="M 0,0 H 942.13438 V 530.97969 H 0 Z"
         transform="translate(0,1.0065628e-5)"
         id="path13" /></clipPath><clipPath
       clipPathUnits="userSpaceOnUse"
       id="clipPath14"><path
         d="M 0,0 H 942.13438 V 530.97969 H 0 Z"
         transform="translate(0,1.0065628e-5)"
         id="path14" /></clipPath><clipPath
       clipPathUnits="userSpaceOnUse"
       id="clipPath15"><path
         d="M 0,0 H 942.13438 V 530.97969 H 0 Z"
         transform="matrix(1,0,0,-1,-397.73439,40.012491)"
         id="path15" /></clipPath><clipPath
       clipPathUnits="userSpaceOnUse"
       id="clipPath16"><path
         d="M 80.434375,66.73125 H 917.43438 v 446.4 H 80.434375 Z"
         transform="translate(0,1.0065628e-5)"
         id="path16" /></clipPath><clipPath
       clipPathUnits="userSpaceOnUse"
       id="clipPath17"><path
         d="M 0,0 H 942.13438 V 530.97969 H 0 Z"
         transform="translate(0,1.0065628e-5)"
         id="path17" /></clipPath><clipPath
       clipPathUnits="userSpaceOnUse"
       id="clipPath18"><path
         d="M 0,0 H 942.13438 V 530.97969 H 0 Z"
         transform="translate(0,1.0065628e-5)"
         id="path18" /></clipPath><clipPath
       clipPathUnits="userSpaceOnUse"
       id="clipPath19"><path
         d="M 0,0 H 942.13438 V 530.97969 H 0 Z"
         transform="matrix(1,0,0,-1,-565.13438,40.012491)"
         id="path19" /></clipPath><clipPath
       clipPathUnits="userSpaceOnUse"
       id="clipPath20"><path
         d="M 80.434375,66.73125 H 917.43438 v 446.4 H 80.434375 Z"
         transform="translate(0,1.0065628e-5)"
         id="path20" /></clipPath><clipPath
       clipPathUnits="userSpaceOnUse"
       id="clipPath21"><path
         d="M 0,0 H 942.13438 V 530.97969 H 0 Z"
         transform="translate(0,1.0065628e-5)"
         id="path21" /></clipPath><clipPath
       clipPathUnits="userSpaceOnUse"
       id="clipPath22"><path
         d="M 0,0 H 942.13438 V 530.97969 H 0 Z"
         transform="translate(0,1.0065628e-5)"
         id="path22" /></clipPath><clipPath
       clipPathUnits="userSpaceOnUse"
       id="clipPath23"><path
         d="M 0,0 H 942.13438 V 530.97969 H 0 Z"
         transform="matrix(1,0,0,-1,-732.53436,40.012491)"
         id="path23" /></clipPath><clipPath
       clipPathUnits="userSpaceOnUse"
       id="clipPath24"><path
         d="M 80.434375,66.73125 H 917.43438 v 446.4 H 80.434375 Z"
         transform="translate(0,1.0065628e-5)"
         id="path24" /></clipPath><clipPath
       clipPathUnits="userSpaceOnUse"
       id="clipPath25"><path
         d="M 0,0 H 942.13438 V 530.97969 H 0 Z"
         transform="translate(0,1.0065628e-5)"
         id="path25" /></clipPath><clipPath
       clipPathUnits="userSpaceOnUse"
       id="clipPath26"><path
         d="M 0,0 H 942.13438 V 530.97969 H 0 Z"
         transform="translate(0,1.0065628e-5)"
         id="path26" /></clipPath><clipPath
       clipPathUnits="userSpaceOnUse"
       id="clipPath27"><path
         d="M 0,0 H 942.13438 V 530.97969 H 0 Z"
         transform="matrix(1,0,0,-1,-899.93438,40.012491)"
         id="path27" /></clipPath><clipPath
       clipPathUnits="userSpaceOnUse"
       id="clipPath28"><path
         d="M 0,0 H 942.13438 V 530.97969 H 0 Z"
         transform="matrix(1,0,0,-1,-465.36405,12.200014)"
         id="path28" /></clipPath><clipPath
       clipPathUnits="userSpaceOnUse"
       id="clipPath29"><path
         d="M 0,0 H 942.13438 V 530.97969 H 0 Z"
         transform="matrix(1,0,0,-1,-875.90313,15.715626)"
         id="path29" /></clipPath><clipPath
       clipPathUnits="userSpaceOnUse"
       id="clipPath30"><path
         d="M 80.434375,66.73125 H 917.43438 v 446.4 H 80.434375 Z"
         transform="translate(0,1.0065628e-5)"
         id="path30" /></clipPath><clipPath
       clipPathUnits="userSpaceOnUse"
       id="clipPath31"><path
         d="M 0,0 H 942.13438 V 530.97969 H 0 Z"
         transform="translate(0,1.0065628e-5)"
         id="path31" /></clipPath><clipPath
       clipPathUnits="userSpaceOnUse"
       id="clipPath32"><path
         d="M 0,0 H 942.13438 V 530.97969 H 0 Z"
         transform="translate(0,1.0065628e-5)"
         id="path32" /></clipPath><clipPath
       clipPathUnits="userSpaceOnUse"
       id="clipPath33"><path
         d="M 0,0 H 942.13438 V 530.97969 H 0 Z"
         transform="matrix(1,0,0,-1,-35.434376,60.660939)"
         id="path33" /></clipPath><clipPath
       clipPathUnits="userSpaceOnUse"
       id="clipPath34"><path
         d="M 80.434375,66.73125 H 917.43438 v 446.4 H 80.434375 Z"
         transform="translate(0,1.0065628e-5)"
         id="path34" /></clipPath><clipPath
       clipPathUnits="userSpaceOnUse"
       id="clipPath35"><path
         d="M 0,0 H 942.13438 V 530.97969 H 0 Z"
         transform="translate(0,1.0065628e-5)"
         id="path35" /></clipPath><clipPath
       clipPathUnits="userSpaceOnUse"
       id="clipPath36"><path
         d="M 0,0 H 942.13438 V 530.97969 H 0 Z"
         transform="translate(0,1.0065628e-5)"
         id="path36" /></clipPath><clipPath
       clipPathUnits="userSpaceOnUse"
       id="clipPath37"><path
         d="M 0,0 H 942.13438 V 530.97969 H 0 Z"
         transform="matrix(1,0,0,-1,-35.434376,149.94092)"
         id="path37" /></clipPath><clipPath
       clipPathUnits="userSpaceOnUse"
       id="clipPath38"><path
         d="M 80.434375,66.73125 H 917.43438 v 446.4 H 80.434375 Z"
         transform="translate(0,1.0065628e-5)"
         id="path38" /></clipPath><clipPath
       clipPathUnits="userSpaceOnUse"
       id="clipPath39"><path
         d="M 0,0 H 942.13438 V 530.97969 H 0 Z"
         transform="translate(0,1.0065628e-5)"
         id="path39" /></clipPath><clipPath
       clipPathUnits="userSpaceOnUse"
       id="clipPath40"><path
         d="M 0,0 H 942.13438 V 530.97969 H 0 Z"
         transform="translate(0,1.0065628e-5)"
         id="path40" /></clipPath><clipPath
       clipPathUnits="userSpaceOnUse"
       id="clipPath41"><path
         d="M 0,0 H 942.13438 V 530.97969 H 0 Z"
         transform="matrix(1,0,0,-1,-35.434376,239.22094)"
         id="path41" /></clipPath><clipPath
       clipPathUnits="userSpaceOnUse"
       id="clipPath42"><path
         d="M 80.434375,66.73125 H 917.43438 v 446.4 H 80.434375 Z"
         transform="translate(0,1.0065628e-5)"
         id="path42" /></clipPath><clipPath
       clipPathUnits="userSpaceOnUse"
       id="clipPath43"><path
         d="M 0,0 H 942.13438 V 530.97969 H 0 Z"
         transform="translate(0,1.0065628e-5)"
         id="path43" /></clipPath><clipPath
       clipPathUnits="userSpaceOnUse"
       id="clipPath44"><path
         d="M 0,0 H 942.13438 V 530.97969 H 0 Z"
         transform="translate(0,1.0065628e-5)"
         id="path44" /></clipPath><clipPath
       clipPathUnits="userSpaceOnUse"
       id="clipPath45"><path
         d="M 0,0 H 942.13438 V 530.97969 H 0 Z"
         transform="matrix(1,0,0,-1,-35.434376,328.50093)"
         id="path45" /></clipPath><clipPath
       clipPathUnits="userSpaceOnUse"
       id="clipPath46"><path
         d="M 80.434375,66.73125 H 917.43438 v 446.4 H 80.434375 Z"
         transform="translate(0,1.0065628e-5)"
         id="path46" /></clipPath><clipPath
       clipPathUnits="userSpaceOnUse"
       id="clipPath47"><path
         d="M 0,0 H 942.13438 V 530.97969 H 0 Z"
         transform="translate(0,1.0065628e-5)"
         id="path47" /></clipPath><clipPath
       clipPathUnits="userSpaceOnUse"
       id="clipPath48"><path
         d="M 0,0 H 942.13438 V 530.97969 H 0 Z"
         transform="translate(0,1.0065628e-5)"
         id="path48" /></clipPath><clipPath
       clipPathUnits="userSpaceOnUse"
       id="clipPath49"><path
         d="M 0,0 H 942.13438 V 530.97969 H 0 Z"
         transform="matrix(1,0,0,-1,-35.434376,417.78094)"
         id="path49" /></clipPath><clipPath
       clipPathUnits="userSpaceOnUse"
       id="clipPath50"><path
         d="M 80.434375,66.73125 H 917.43438 v 446.4 H 80.434375 Z"
         transform="translate(0,1.0065628e-5)"
         id="path50" /></clipPath><clipPath
       clipPathUnits="userSpaceOnUse"
       id="clipPath51"><path
         d="M 0,0 H 942.13438 V 530.97969 H 0 Z"
         transform="translate(0,1.0065628e-5)"
         id="path51" /></clipPath><clipPath
       clipPathUnits="userSpaceOnUse"
       id="clipPath52"><path
         d="M 0,0 H 942.13438 V 530.97969 H 0 Z"
         transform="translate(0,1.0065628e-5)"
         id="path52" /></clipPath><clipPath
       clipPathUnits="userSpaceOnUse"
       id="clipPath53"><path
         d="M 0,0 H 942.13438 V 530.97969 H 0 Z"
         transform="matrix(1,0,0,-1,-35.434376,507.06094)"
         id="path53" /></clipPath><clipPath
       clipPathUnits="userSpaceOnUse"
       id="clipPath54"><path
         d="M 0,0 H 942.13438 V 530.97969 H 0 Z"
         transform="matrix(0,1,1,0,-144.32189,-25.434376)"
         id="path54" /></clipPath><clipPath
       clipPathUnits="userSpaceOnUse"
       id="clipPath55"><path
         d="M 80.434375,66.73125 H 917.43438 v 446.4 H 80.434375 Z"
         transform="translate(0,1.0065628e-5)"
         id="path55" /></clipPath><clipPath
       clipPathUnits="userSpaceOnUse"
       id="clipPath56"><path
         d="M 80.434375,66.73125 H 917.43438 v 446.4 H 80.434375 Z"
         transform="translate(0,1.0065628e-5)"
         id="path56" /></clipPath><clipPath
       clipPathUnits="userSpaceOnUse"
       id="clipPath57"><path
         d="M 80.434375,66.73125 H 917.43438 v 446.4 H 80.434375 Z"
         transform="translate(0,1.0065628e-5)"
         id="path57" /></clipPath><clipPath
       clipPathUnits="userSpaceOnUse"
       id="clipPath58"><path
         d="M 80.434375,66.73125 H 917.43438 v 446.4 H 80.434375 Z"
         transform="translate(0,1.0065628e-5)"
         id="path58" /></clipPath><clipPath
       clipPathUnits="userSpaceOnUse"
       id="clipPath59"><path
         d="M 80.434375,66.73125 H 917.43438 v 446.4 H 80.434375 Z"
         transform="translate(0,1.0065628e-5)"
         id="path59" /></clipPath><clipPath
       clipPathUnits="userSpaceOnUse"
       id="clipPath60"><path
         d="M 80.434375,66.73125 H 917.43438 v 446.4 H 80.434375 Z"
         transform="translate(0,1.0065628e-5)"
         id="path60" /></clipPath><clipPath
       clipPathUnits="userSpaceOnUse"
       id="clipPath61"><path
         d="M 80.434375,66.73125 H 917.43438 v 446.4 H 80.434375 Z"
         transform="translate(0,1.0065628e-5)"
         id="path61" /></clipPath><clipPath
       clipPathUnits="userSpaceOnUse"
       id="clipPath62"><path
         d="M 80.434375,66.73125 H 917.43438 v 446.4 H 80.434375 Z"
         transform="translate(0,1.0065628e-5)"
         id="path62" /></clipPath><clipPath
       clipPathUnits="userSpaceOnUse"
       id="clipPath63"><path
         d="M 80.434375,66.73125 H 917.43438 v 446.4 H 80.434375 Z"
         transform="translate(0,1.0065628e-5)"
         id="path63" /></clipPath><clipPath
       clipPathUnits="userSpaceOnUse"
       id="clipPath64"><path
         d="M 80.434375,66.73125 H 917.43438 v 446.4 H 80.434375 Z"
         transform="translate(0,1.0065628e-5)"
         id="path64" /></clipPath><clipPath
       clipPathUnits="userSpaceOnUse"
       id="clipPath65"><path
         d="M 0,0 H 942.13438 V 530.97969 H 0 Z"
         transform="translate(0,1.0065628e-5)"
         id="path65" /></clipPath><clipPath
       clipPathUnits="userSpaceOnUse"
       id="clipPath66"><path
         d="M 0,0 H 942.13438 V 530.97969 H 0 Z"
         transform="translate(0,1.0065628e-5)"
         id="path66" /></clipPath><clipPath
       clipPathUnits="userSpaceOnUse"
       id="clipPath67"><path
         d="M 0,0 H 942.13438 V 530.97969 H 0 Z"
         transform="translate(0,1.0065628e-5)"
         id="path67" /></clipPath><clipPath
       clipPathUnits="userSpaceOnUse"
       id="clipPath68"><path
         d="M 0,0 H 942.13438 V 530.97969 H 0 Z"
         transform="translate(0,1.0065628e-5)"
         id="path68" /></clipPath><clipPath
       clipPathUnits="userSpaceOnUse"
       id="clipPath69"><path
         d="M 0,0 H 942.13438 V 530.97969 H 0 Z"
         transform="translate(0,1.0065628e-5)"
         id="path69" /></clipPath><clipPath
       clipPathUnits="userSpaceOnUse"
       id="clipPath70"><path
         d="M 0,0 H 942.13438 V 530.97969 H 0 Z"
         transform="translate(0,1.0065628e-5)"
         id="path70" /></clipPath><clipPath
       clipPathUnits="userSpaceOnUse"
       id="clipPath71"><path
         d="M 0,0 H 942.13438 V 530.97969 H 0 Z"
         transform="matrix(1,0,0,-1,-783.91563,220.29689)"
         id="path71" /></clipPath><clipPath
       clipPathUnits="userSpaceOnUse"
       id="clipPath72"><path
         d="M 0,0 H 942.13438 V 530.97969 H 0 Z"
         transform="translate(0,1.0065628e-5)"
         id="path72" /></clipPath><clipPath
       clipPathUnits="userSpaceOnUse"
       id="clipPath73"><path
         d="M 0,0 H 942.13438 V 530.97969 H 0 Z"
         transform="matrix(1,0,0,-1,-783.91563,187.99999)"
         id="path73" /></clipPath><clipPath
       clipPathUnits="userSpaceOnUse"
       id="clipPath74"><path
         d="M 0,0 H 942.13438 V 530.97969 H 0 Z"
         transform="translate(0,1.0065628e-5)"
         id="path74" /></clipPath><clipPath
       clipPathUnits="userSpaceOnUse"
       id="clipPath75"><path
         d="M 0,0 H 942.13438 V 530.97969 H 0 Z"
         transform="matrix(1,0,0,-1,-783.91563,155.70312)"
         id="path75" /></clipPath><clipPath
       clipPathUnits="userSpaceOnUse"
       id="clipPath76"><path
         d="M 0,0 H 942.13438 V 530.97969 H 0 Z"
         transform="translate(0,1.0065628e-5)"
         id="path76" /></clipPath><clipPath
       clipPathUnits="userSpaceOnUse"
       id="clipPath77"><path
         d="M 0,0 H 942.13438 V 530.97969 H 0 Z"
         transform="matrix(1,0,0,-1,-783.91563,123.40626)"
         id="path77" /></clipPath><clipPath
       clipPathUnits="userSpaceOnUse"
       id="clipPath78"><path
         d="M 0,0 H 942.13438 V 530.97969 H 0 Z"
         transform="translate(0,1.0065628e-5)"
         id="path78" /></clipPath><clipPath
       clipPathUnits="userSpaceOnUse"
       id="clipPath79"><path
         d="M 0,0 H 942.13438 V 530.97969 H 0 Z"
         transform="matrix(1,0,0,-1,-783.91563,91.109363)"
         id="path79" /></clipPath></defs><g
     inkscape:label="Layer 1"
     inkscape:groupmode="layer"
     id="layer1"
     transform="translate(-105,-34.715528)"><g
       id="g138"
       transform="matrix(0.26458333,0,0,0.26458333,85.442,11.058753)"><path
         d="M 0,0 H 942.13438 V 530.97969 H 0 Z"
         style="fill:#ffffff;fill-opacity:1;fill-rule:nonzero;stroke:none"
         transform="matrix(0.33116,0,0,-0.33116,73.92,265.25067)"
         clip-path="url(#clipPath2)"
         id="path80" /><path
         d="M 80.434375,66.73125 H 917.43438 v 446.4 H 80.434375 Z"
         style="fill:#ffffff;fill-opacity:1;fill-rule:nonzero;stroke:none"
         transform="matrix(0.33116,0,0,-0.33116,73.92,265.25067)"
         clip-path="url(#clipPath3)"
         id="path81" /><path
         d="m 80.434375,66.73125 v 446.4"
         style="fill:none;stroke:#cccccc;stroke-width:1;stroke-linecap:round;stroke-linejoin:round;stroke-miterlimit:10;stroke-dasharray:none;stroke-opacity:1"
         transform="matrix(0.33116,0,0,-0.33116,73.92,265.25067)"
         clip-path="url(#clipPath4)"
         id="path82" /><path
         d="m 80.434375,66.73125 v -6"
         style="fill:#262626;fill-opacity:1;fill-rule:nonzero;stroke:#262626;stroke-width:1.25;stroke-linecap:butt;stroke-linejoin:round;stroke-miterlimit:10;stroke-dasharray:none;stroke-opacity:1"
         transform="matrix(0.33116,0,0,-0.33116,73.92,265.25067)"
         clip-path="url(#clipPath5)"
         id="path83" /><path
         d="m 80.434375,513.13125 v 6"
         style="fill:#262626;fill-opacity:1;fill-rule:nonzero;stroke:#262626;stroke-width:1.25;stroke-linecap:butt;stroke-linejoin:round;stroke-miterlimit:10;stroke-dasharray:none;stroke-opacity:1"
         transform="matrix(0.33116,0,0,-0.33116,73.92,265.25067)"
         clip-path="url(#clipPath6)"
         id="path84" /><text
         xml:space="preserve"
         transform="matrix(0.33116,0,0,0.33116,94.761348,252.00013)"
         clip-path="url(#clipPath7)"
         id="text84"><tspan
           style="font-variant:normal;font-weight:normal;font-size:22px;font-family:'Big Caslon';writing-mode:lr-tb;fill:#262626;fill-opacity:1;fill-rule:nonzero;stroke:none"
           x="0 14.333 21.493999"
           y="0"
           sodipodi:role="line"
           id="tspan84">0.0</tspan></text><path
         d="m 247.83437,66.73125 v 446.4"
         style="fill:none;stroke:#cccccc;stroke-width:1;stroke-linecap:round;stroke-linejoin:round;stroke-miterlimit:10;stroke-dasharray:none;stroke-opacity:1"
         transform="matrix(0.33116,0,0,-0.33116,73.92,265.25067)"
         clip-path="url(#clipPath8)"
         id="path85" /><path
         d="m 247.83437,66.73125 v -6"
         style="fill:#262626;fill-opacity:1;fill-rule:nonzero;stroke:#262626;stroke-width:1.25;stroke-linecap:butt;stroke-linejoin:round;stroke-miterlimit:10;stroke-dasharray:none;stroke-opacity:1"
         transform="matrix(0.33116,0,0,-0.33116,73.92,265.25067)"
         clip-path="url(#clipPath9)"
         id="path86" /><path
         d="m 247.83437,513.13125 v 6"
         style="fill:#262626;fill-opacity:1;fill-rule:nonzero;stroke:#262626;stroke-width:1.25;stroke-linecap:butt;stroke-linejoin:round;stroke-miterlimit:10;stroke-dasharray:none;stroke-opacity:1"
         transform="matrix(0.33116,0,0,-0.33116,73.92,265.25067)"
         clip-path="url(#clipPath10)"
         id="path87" /><text
         xml:space="preserve"
         transform="matrix(0.33116,0,0,0.33116,150.19753,252.00013)"
         clip-path="url(#clipPath11)"
         id="text87"><tspan
           style="font-variant:normal;font-weight:normal;font-size:22px;font-family:'Big Caslon';writing-mode:lr-tb;fill:#262626;fill-opacity:1;fill-rule:nonzero;stroke:none"
           x="0 14.333 21.493999"
           y="0"
           sodipodi:role="line"
           id="tspan87">0.2</tspan></text><path
         d="m 415.23437,66.73125 v 446.4"
         style="fill:none;stroke:#cccccc;stroke-width:1;stroke-linecap:round;stroke-linejoin:round;stroke-miterlimit:10;stroke-dasharray:none;stroke-opacity:1"
         transform="matrix(0.33116,0,0,-0.33116,73.92,265.25067)"
         clip-path="url(#clipPath12)"
         id="path88" /><path
         d="m 415.23437,66.73125 v -6"
         style="fill:#262626;fill-opacity:1;fill-rule:nonzero;stroke:#262626;stroke-width:1.25;stroke-linecap:butt;stroke-linejoin:round;stroke-miterlimit:10;stroke-dasharray:none;stroke-opacity:1"
         transform="matrix(0.33116,0,0,-0.33116,73.92,265.25067)"
         clip-path="url(#clipPath13)"
         id="path89" /><path
         d="m 415.23437,513.13125 v 6"
         style="fill:#262626;fill-opacity:1;fill-rule:nonzero;stroke:#262626;stroke-width:1.25;stroke-linecap:butt;stroke-linejoin:round;stroke-miterlimit:10;stroke-dasharray:none;stroke-opacity:1"
         transform="matrix(0.33116,0,0,-0.33116,73.92,265.25067)"
         clip-path="url(#clipPath14)"
         id="path90" /><text
         xml:space="preserve"
         transform="matrix(0.33116,0,0,0.33116,205.63372,252.00013)"
         clip-path="url(#clipPath15)"
         id="text90"><tspan
           style="font-variant:normal;font-weight:normal;font-size:22px;font-family:'Big Caslon';writing-mode:lr-tb;fill:#262626;fill-opacity:1;fill-rule:nonzero;stroke:none"
           x="0 14.333 21.493999"
           y="0"
           sodipodi:role="line"
           id="tspan90">0.4</tspan></text><path
         d="m 582.63438,66.73125 v 446.4"
         style="fill:none;stroke:#cccccc;stroke-width:1;stroke-linecap:round;stroke-linejoin:round;stroke-miterlimit:10;stroke-dasharray:none;stroke-opacity:1"
         transform="matrix(0.33116,0,0,-0.33116,73.92,265.25067)"
         clip-path="url(#clipPath16)"
         id="path91" /><path
         d="m 582.63438,66.73125 v -6"
         style="fill:#262626;fill-opacity:1;fill-rule:nonzero;stroke:#262626;stroke-width:1.25;stroke-linecap:butt;stroke-linejoin:round;stroke-miterlimit:10;stroke-dasharray:none;stroke-opacity:1"
         transform="matrix(0.33116,0,0,-0.33116,73.92,265.25067)"
         clip-path="url(#clipPath17)"
         id="path92" /><path
         d="m 582.63438,513.13125 v 6"
         style="fill:#262626;fill-opacity:1;fill-rule:nonzero;stroke:#262626;stroke-width:1.25;stroke-linecap:butt;stroke-linejoin:round;stroke-miterlimit:10;stroke-dasharray:none;stroke-opacity:1"
         transform="matrix(0.33116,0,0,-0.33116,73.92,265.25067)"
         clip-path="url(#clipPath18)"
         id="path93" /><text
         xml:space="preserve"
         transform="matrix(0.33116,0,0,0.33116,261.0699,252.00013)"
         clip-path="url(#clipPath19)"
         id="text93"><tspan
           style="font-variant:normal;font-weight:normal;font-size:22px;font-family:'Big Caslon';writing-mode:lr-tb;fill:#262626;fill-opacity:1;fill-rule:nonzero;stroke:none"
           x="0 14.333 21.493999"
           y="0"
           sodipodi:role="line"
           id="tspan93">0.6</tspan></text><path
         d="m 750.03438,66.73125 v 446.4"
         style="fill:none;stroke:#cccccc;stroke-width:1;stroke-linecap:round;stroke-linejoin:round;stroke-miterlimit:10;stroke-dasharray:none;stroke-opacity:1"
         transform="matrix(0.33116,0,0,-0.33116,73.92,265.25067)"
         clip-path="url(#clipPath20)"
         id="path94" /><path
         d="m 750.03438,66.73125 v -6"
         style="fill:#262626;fill-opacity:1;fill-rule:nonzero;stroke:#262626;stroke-width:1.25;stroke-linecap:butt;stroke-linejoin:round;stroke-miterlimit:10;stroke-dasharray:none;stroke-opacity:1"
         transform="matrix(0.33116,0,0,-0.33116,73.92,265.25067)"
         clip-path="url(#clipPath21)"
         id="path95" /><path
         d="m 750.03438,513.13125 v 6"
         style="fill:#262626;fill-opacity:1;fill-rule:nonzero;stroke:#262626;stroke-width:1.25;stroke-linecap:butt;stroke-linejoin:round;stroke-miterlimit:10;stroke-dasharray:none;stroke-opacity:1"
         transform="matrix(0.33116,0,0,-0.33116,73.92,265.25067)"
         clip-path="url(#clipPath22)"
         id="path96" /><text
         xml:space="preserve"
         transform="matrix(0.33116,0,0,0.33116,316.50608,252.00013)"
         clip-path="url(#clipPath23)"
         id="text96"><tspan
           style="font-variant:normal;font-weight:normal;font-size:22px;font-family:'Big Caslon';writing-mode:lr-tb;fill:#262626;fill-opacity:1;fill-rule:nonzero;stroke:none"
           x="0 14.333 21.493999"
           y="0"
           sodipodi:role="line"
           id="tspan96">0.8</tspan></text><path
         d="m 917.43438,66.73125 v 446.4"
         style="fill:none;stroke:#cccccc;stroke-width:1;stroke-linecap:round;stroke-linejoin:round;stroke-miterlimit:10;stroke-dasharray:none;stroke-opacity:1"
         transform="matrix(0.33116,0,0,-0.33116,73.92,265.25067)"
         clip-path="url(#clipPath24)"
         id="path97" /><path
         d="m 917.43438,66.73125 v -6"
         style="fill:#262626;fill-opacity:1;fill-rule:nonzero;stroke:#262626;stroke-width:1.25;stroke-linecap:butt;stroke-linejoin:round;stroke-miterlimit:10;stroke-dasharray:none;stroke-opacity:1"
         transform="matrix(0.33116,0,0,-0.33116,73.92,265.25067)"
         clip-path="url(#clipPath25)"
         id="path98" /><path
         d="m 917.43438,513.13125 v 6"
         style="fill:#262626;fill-opacity:1;fill-rule:nonzero;stroke:#262626;stroke-width:1.25;stroke-linecap:butt;stroke-linejoin:round;stroke-miterlimit:10;stroke-dasharray:none;stroke-opacity:1"
         transform="matrix(0.33116,0,0,-0.33116,73.92,265.25067)"
         clip-path="url(#clipPath26)"
         id="path99" /><text
         xml:space="preserve"
         transform="matrix(0.33116,0,0,0.33116,371.94227,252.00013)"
         clip-path="url(#clipPath27)"
         id="text99"><tspan
           style="font-variant:normal;font-weight:normal;font-size:22px;font-family:'Big Caslon';writing-mode:lr-tb;fill:#262626;fill-opacity:1;fill-rule:nonzero;stroke:none"
           x="0 14.333 21.493999"
           y="0"
           sodipodi:role="line"
           id="tspan99">1.0</tspan></text><text
         xml:space="preserve"
         transform="matrix(0.33116,0,0,0.33116,228.02996,261.21051)"
         clip-path="url(#clipPath28)"
         id="text100"><tspan
           style="font-variant:normal;font-weight:normal;font-size:24px;font-family:'Big Caslon';writing-mode:lr-tb;fill:#262626;fill-opacity:1;fill-rule:nonzero;stroke:none"
           x="0 15.6 25.236 40.355999 55.956001"
           y="0"
           sodipodi:role="line"
           id="tspan100">Steps</tspan></text><text
         xml:space="preserve"
         transform="matrix(0.33116,0,0,0.33116,363.98408,260.04628)"
         clip-path="url(#clipPath29)"
         id="text101"><tspan
           style="font-variant:normal;font-weight:normal;font-size:22px;font-family:'Big Caslon';writing-mode:lr-tb;fill:#262626;fill-opacity:1;fill-rule:nonzero;stroke:none"
           x="0 14.333 28.193001"
           y="0"
           sodipodi:role="line"
           id="tspan101">1e8</tspan></text><path
         d="M 80.434375,66.73125 H 917.43438"
         style="fill:none;stroke:#cccccc;stroke-width:1;stroke-linecap:round;stroke-linejoin:round;stroke-miterlimit:10;stroke-dasharray:none;stroke-opacity:1"
         transform="matrix(0.33116,0,0,-0.33116,73.92,265.25067)"
         clip-path="url(#clipPath30)"
         id="path101" /><path
         d="m 80.434375,66.73125 h -6"
         style="fill:#262626;fill-opacity:1;fill-rule:nonzero;stroke:#262626;stroke-width:1.25;stroke-linecap:butt;stroke-linejoin:round;stroke-miterlimit:10;stroke-dasharray:none;stroke-opacity:1"
         transform="matrix(0.33116,0,0,-0.33116,73.92,265.25067)"
         clip-path="url(#clipPath31)"
         id="path102" /><path
         d="m 917.43438,66.73125 h 6"
         style="fill:#262626;fill-opacity:1;fill-rule:nonzero;stroke:#262626;stroke-width:1.25;stroke-linecap:butt;stroke-linejoin:round;stroke-miterlimit:10;stroke-dasharray:none;stroke-opacity:1"
         transform="matrix(0.33116,0,0,-0.33116,73.92,265.25067)"
         clip-path="url(#clipPath32)"
         id="path103" /><text
         xml:space="preserve"
         transform="matrix(0.33116,0,0,0.33116,85.654448,245.16219)"
         clip-path="url(#clipPath33)"
         id="text103"><tspan
           style="font-variant:normal;font-weight:normal;font-size:22px;font-family:'Big Caslon';writing-mode:lr-tb;fill:#262626;fill-opacity:1;fill-rule:nonzero;stroke:none"
           x="0 14.333 21.493999"
           y="0"
           sodipodi:role="line"
           id="tspan103">0.0</tspan></text><path
         d="M 80.434375,156.01125 H 917.43438"
         style="fill:none;stroke:#cccccc;stroke-width:1;stroke-linecap:round;stroke-linejoin:round;stroke-miterlimit:10;stroke-dasharray:none;stroke-opacity:1"
         transform="matrix(0.33116,0,0,-0.33116,73.92,265.25067)"
         clip-path="url(#clipPath34)"
         id="path104" /><path
         d="m 80.434375,156.01125 h -6"
         style="fill:#262626;fill-opacity:1;fill-rule:nonzero;stroke:#262626;stroke-width:1.25;stroke-linecap:butt;stroke-linejoin:round;stroke-miterlimit:10;stroke-dasharray:none;stroke-opacity:1"
         transform="matrix(0.33116,0,0,-0.33116,73.92,265.25067)"
         clip-path="url(#clipPath35)"
         id="path105" /><path
         d="m 917.43438,156.01125 h 6"
         style="fill:#262626;fill-opacity:1;fill-rule:nonzero;stroke:#262626;stroke-width:1.25;stroke-linecap:butt;stroke-linejoin:round;stroke-miterlimit:10;stroke-dasharray:none;stroke-opacity:1"
         transform="matrix(0.33116,0,0,-0.33116,73.92,265.25067)"
         clip-path="url(#clipPath36)"
         id="path106" /><text
         xml:space="preserve"
         transform="matrix(0.33116,0,0,0.33116,85.654448,215.59623)"
         clip-path="url(#clipPath37)"
         id="text106"><tspan
           style="font-variant:normal;font-weight:normal;font-size:22px;font-family:'Big Caslon';writing-mode:lr-tb;fill:#262626;fill-opacity:1;fill-rule:nonzero;stroke:none"
           x="0 14.333 21.493999"
           y="0"
           sodipodi:role="line"
           id="tspan106">0.2</tspan></text><path
         d="M 80.434375,245.29125 H 917.43438"
         style="fill:none;stroke:#cccccc;stroke-width:1;stroke-linecap:round;stroke-linejoin:round;stroke-miterlimit:10;stroke-dasharray:none;stroke-opacity:1"
         transform="matrix(0.33116,0,0,-0.33116,73.92,265.25067)"
         clip-path="url(#clipPath38)"
         id="path107" /><path
         d="m 80.434375,245.29125 h -6"
         style="fill:#262626;fill-opacity:1;fill-rule:nonzero;stroke:#262626;stroke-width:1.25;stroke-linecap:butt;stroke-linejoin:round;stroke-miterlimit:10;stroke-dasharray:none;stroke-opacity:1"
         transform="matrix(0.33116,0,0,-0.33116,73.92,265.25067)"
         clip-path="url(#clipPath39)"
         id="path108" /><path
         d="m 917.43438,245.29125 h 6"
         style="fill:#262626;fill-opacity:1;fill-rule:nonzero;stroke:#262626;stroke-width:1.25;stroke-linecap:butt;stroke-linejoin:round;stroke-miterlimit:10;stroke-dasharray:none;stroke-opacity:1"
         transform="matrix(0.33116,0,0,-0.33116,73.92,265.25067)"
         clip-path="url(#clipPath40)"
         id="path109" /><text
         xml:space="preserve"
         transform="matrix(0.33116,0,0,0.33116,85.654448,186.03026)"
         clip-path="url(#clipPath41)"
         id="text109"><tspan
           style="font-variant:normal;font-weight:normal;font-size:22px;font-family:'Big Caslon';writing-mode:lr-tb;fill:#262626;fill-opacity:1;fill-rule:nonzero;stroke:none"
           x="0 14.333 21.493999"
           y="0"
           sodipodi:role="line"
           id="tspan109">0.4</tspan></text><path
         d="M 80.434375,334.57125 H 917.43438"
         style="fill:none;stroke:#cccccc;stroke-width:1;stroke-linecap:round;stroke-linejoin:round;stroke-miterlimit:10;stroke-dasharray:none;stroke-opacity:1"
         transform="matrix(0.33116,0,0,-0.33116,73.92,265.25067)"
         clip-path="url(#clipPath42)"
         id="path110" /><path
         d="m 80.434375,334.57125 h -6"
         style="fill:#262626;fill-opacity:1;fill-rule:nonzero;stroke:#262626;stroke-width:1.25;stroke-linecap:butt;stroke-linejoin:round;stroke-miterlimit:10;stroke-dasharray:none;stroke-opacity:1"
         transform="matrix(0.33116,0,0,-0.33116,73.92,265.25067)"
         clip-path="url(#clipPath43)"
         id="path111" /><path
         d="m 917.43438,334.57125 h 6"
         style="fill:#262626;fill-opacity:1;fill-rule:nonzero;stroke:#262626;stroke-width:1.25;stroke-linecap:butt;stroke-linejoin:round;stroke-miterlimit:10;stroke-dasharray:none;stroke-opacity:1"
         transform="matrix(0.33116,0,0,-0.33116,73.92,265.25067)"
         clip-path="url(#clipPath44)"
         id="path112" /><text
         xml:space="preserve"
         transform="matrix(0.33116,0,0,0.33116,85.654448,156.4643)"
         clip-path="url(#clipPath45)"
         id="text112"><tspan
           style="font-variant:normal;font-weight:normal;font-size:22px;font-family:'Big Caslon';writing-mode:lr-tb;fill:#262626;fill-opacity:1;fill-rule:nonzero;stroke:none"
           x="0 14.333 21.493999"
           y="0"
           sodipodi:role="line"
           id="tspan112">0.6</tspan></text><path
         d="M 80.434375,423.85125 H 917.43438"
         style="fill:none;stroke:#cccccc;stroke-width:1;stroke-linecap:round;stroke-linejoin:round;stroke-miterlimit:10;stroke-dasharray:none;stroke-opacity:1"
         transform="matrix(0.33116,0,0,-0.33116,73.92,265.25067)"
         clip-path="url(#clipPath46)"
         id="path113" /><path
         d="m 80.434375,423.85125 h -6"
         style="fill:#262626;fill-opacity:1;fill-rule:nonzero;stroke:#262626;stroke-width:1.25;stroke-linecap:butt;stroke-linejoin:round;stroke-miterlimit:10;stroke-dasharray:none;stroke-opacity:1"
         transform="matrix(0.33116,0,0,-0.33116,73.92,265.25067)"
         clip-path="url(#clipPath47)"
         id="path114" /><path
         d="m 917.43438,423.85125 h 6"
         style="fill:#262626;fill-opacity:1;fill-rule:nonzero;stroke:#262626;stroke-width:1.25;stroke-linecap:butt;stroke-linejoin:round;stroke-miterlimit:10;stroke-dasharray:none;stroke-opacity:1"
         transform="matrix(0.33116,0,0,-0.33116,73.92,265.25067)"
         clip-path="url(#clipPath48)"
         id="path115" /><text
         xml:space="preserve"
         transform="matrix(0.33116,0,0,0.33116,85.654448,126.89833)"
         clip-path="url(#clipPath49)"
         id="text115"><tspan
           style="font-variant:normal;font-weight:normal;font-size:22px;font-family:'Big Caslon';writing-mode:lr-tb;fill:#262626;fill-opacity:1;fill-rule:nonzero;stroke:none"
           x="0 14.333 21.493999"
           y="0"
           sodipodi:role="line"
           id="tspan115">0.8</tspan></text><path
         d="M 80.434375,513.13125 H 917.43438"
         style="fill:none;stroke:#cccccc;stroke-width:1;stroke-linecap:round;stroke-linejoin:round;stroke-miterlimit:10;stroke-dasharray:none;stroke-opacity:1"
         transform="matrix(0.33116,0,0,-0.33116,73.92,265.25067)"
         clip-path="url(#clipPath50)"
         id="path116" /><path
         d="m 80.434375,513.13125 h -6"
         style="fill:#262626;fill-opacity:1;fill-rule:nonzero;stroke:#262626;stroke-width:1.25;stroke-linecap:butt;stroke-linejoin:round;stroke-miterlimit:10;stroke-dasharray:none;stroke-opacity:1"
         transform="matrix(0.33116,0,0,-0.33116,73.92,265.25067)"
         clip-path="url(#clipPath51)"
         id="path117" /><path
         d="m 917.43438,513.13125 h 6"
         style="fill:#262626;fill-opacity:1;fill-rule:nonzero;stroke:#262626;stroke-width:1.25;stroke-linecap:butt;stroke-linejoin:round;stroke-miterlimit:10;stroke-dasharray:none;stroke-opacity:1"
         transform="matrix(0.33116,0,0,-0.33116,73.92,265.25067)"
         clip-path="url(#clipPath52)"
         id="path118" /><text
         xml:space="preserve"
         transform="matrix(0.33116,0,0,0.33116,85.654448,97.332367)"
         clip-path="url(#clipPath53)"
         id="text118"><tspan
           style="font-variant:normal;font-weight:normal;font-size:22px;font-family:'Big Caslon';writing-mode:lr-tb;fill:#262626;fill-opacity:1;fill-rule:nonzero;stroke:none"
           x="0 14.333 21.493999"
           y="0"
           sodipodi:role="line"
           id="tspan118">1.0</tspan></text><text
         xml:space="preserve"
         transform="matrix(0,-0.33116,0.33116,0,82.342848,217.45703)"
         clip-path="url(#clipPath54)"
         id="text119"><tspan
           style="font-variant:normal;font-weight:normal;font-size:24px;font-family:'Big Caslon';writing-mode:lr-tb;fill:#262626;fill-opacity:1;fill-rule:nonzero;stroke:none"
           x="0 14.136 24.24 39.299999 52.812 62.448002 69.276001 84.311996 99.888 107.7 122.736 131.388 139.2 152.004 167.03999 173.868 188.412 203.532 219.132 226.944 233.772 248.892 263.436 278.556 285.384"
           y="0"
           sodipodi:role="line"
           id="tspan119">Fraction of solved levels</tspan></text><path
         d="m 80.434375,73.216435 v -4.611019 l 41.849995,52.565944 41.85,157.80931 41.85,92.43716 41.85,45.11591 41.85,27.1724 41.85,6.54304 41.85,10.52059 41.85,2.90196 41.85,12.39918 41.85,3.94597 41.85001,-0.27641 41.85,0.59764 41.85,2.33375 41.85,6.10353 41.85,-3.6082 41.85,2.12135 41.85,-0.28799 41.85,3.64954 41.85,1.23277 41.85,2.23453 41.85,-5.83856 41.85002,3.80181 41.85,3.78251 41.85,-2.88461 41.85,2.78952 41.85,-0.56491 41.85,1.84767 41.85,-2.26528 41.85,3.59577 41.85,-2.8824 41.85,1.03779 41.85,0.46431 41.85,1.31393 41.85,-2.59318 41.85,2.8065 41.85,-2.45581 41.85,2.73629 41.85,0.27548 41.85,-1.22378 41.85,1.97425 41.85,0.57689 41.85,-1.53006 41.85,1.45741 41.85,-0.39098 41.85,-0.0312 41.85,0.8379 41.85,-2.10873 41.85,1.39303 41.85,0.98179 41.85,-0.55704 41.85,1.59561 41.85,-1.55604 41.85,0.79354 41.85,-1.17878 41.85,-1.20619 41.85,2.48005 41.85,0.19872 41.85,-0.62813 41.85,1.94377 41.85,-2.88775 41.85,2.82003 41.85,-1.0931 41.85,0.0689 41.85,-1.33501 41.85,2.59872 41.85,-1.09439 41.85,-0.0371 41.85,1.84518 41.85,-2.62543 41.85,1.95067 41.85,-0.10876 41.85,0.49265 41.85,-0.78191 41.85,0.54005 41.85,-0.32802 41.85,0.65228 41.85,-0.86492 41.85,0.32116 41.85,0.60427 41.85,0.2144 41.85,-1.79922 41.85,1.17704 41.85,0.88612 41.85,-0.32138 41.85,-0.41074 41.85,-0.36463 41.85,0.12913 41.85,0.60816 41.85,0.3523 41.85,-1.37962 41.85,0.29617 41.85,0.24538 41.85,0.1253 41.85,0.37167 41.85,1.38474 41.85,-1.23098 41.85,0.37564 41.85,-0.37411 41.85,-0.10582 41.85,1.7228 41.85,-1.53148 41.85,-0.97045 41.85,1.59336 41.85,-1.51231 41.85,1.58594 41.85,-0.57215 41.85,0.75702 41.85,0.68118 41.85,-0.46973 41.85,0.12887 41.85,-1.14686 41.85,0.58079 41.85,0.85881 41.85,-1.85786 41.85,-0.0726 41.85,0.99914 41.85,0.19675 41.85,1.10385 41.85,-0.92559 41.85,0.60054 41.85,-1.54595 41.85,1.33015 41.85,0.16732 41.85,-0.9037 41.85,0.76937 41.85,0.37079 41.85,0.55508 41.85,-1.8788 41.85,2.21832 41.85,-1.63926 41.85,0.61888 41.85,-0.20713 41.85,1.64654 41.85,-1.57886 41.85,0.0176 41.85,-0.85155 41.85,-0.13585 41.85,0.12604 41.85,0.40823 41.85,0.73626 41.85,-0.38763 41.85,-0.66329 41.85,0.12013 41.85,0.67697 41.85,0.45061 41.85,-0.87519 41.85,0.96138 41.85,0.7494 41.85,-0.56843 41.85,-1.61078 41.85,1.99555 41.85,-0.86858 41.85,-0.75331 41.85,0.73416 41.85,-0.0498 41.85,0.12305 41.85,0.62439 41.85,-1.08933 41.85,1.27748 41.85,-0.91211 41.85,0.75194 41.85,0.10935 41.85,-0.26976 41.85,0.54401 41.85,-1.06274 41.85,0.0171 41.85,-0.0538 41.85,-0.37144 41.85,1.26245 41.85,0.1429 41.85,0.0911 41.85,-0.14063 41.85,-0.24574 41.85,0.78724 41.85,-0.25762 41.85,-0.90522 41.85,1.35734 41.85,-0.18343 41.85,0.0753 41.85,0.45628 41.85,-1.26435 41.85,-0.63395 41.85,1.31445 41.85,0.19684 41.85,-1.17949 41.85,1.4066 41.85,-1.4056 41.85,-0.1437 41.85,0.78711 41.85,-0.68825 41.85,0.0845 41.85,0.64561 41.85,0.50086 41.85,-1.35255 41.85,0.90949 41.85,-1.71548 41.85,1.89525 41.85,0.20237 41.85,-1.29324 41.85,0.82102 41.85,0.54339 41.85,-0.88974 41.85,1.3361 41.85,-1.00885 41.85,0.35155 41.85,-0.12597 41.85,-0.51852 41.85,0.97787 41.85,0.67881 41.85,-2.01704 41.85,0.48388 41.85,0.60329 41.85,-0.47834 41.85,0.46041 41.85,-0.54449 41.85,0.68016 41.85,1.30849 41.85,-1.77987 41.85,-0.17771 41.85,0.28709 41.85,-0.11921 41.85,1.19567 41.85,-1.36756 41.85,0.24608 41.85,-0.29585 41.85,0.16001 41.85,0.18092 41.85,0.2781 41.85,0.66638 41.85,-1.52852 41.85,1.89961 41.85,-1.52391 41.85,-0.0473 41.85,1.44852 41.85,-0.80383 41.85,0.009 41.85,1.21745 41.8496,-1.43983 41.85,0.61356 41.85,0.45484 41.85,-1.33392 41.85,0.29089 41.85,0.3944 41.85,0.32512 41.85,-0.0792 41.85,0.0238 41.85,0.39855 41.85,-0.88573 41.85,0.75264 41.85,-0.88848 41.85,0.50867 41.85,0.37138 41.85,-1.0525 41.85,0.4564 41.85,-0.0895 41.85,-1.13201 41.85,1.25898 41.85,-0.0724 41.85,-0.56416 41.85,0.86442 41.85,0.49991 41.85,-0.25301 41.85,-1.23422 41.85,1.24991 41.85,-0.5826 41.85,1.07 41.85,0.19264 41.85,-1.1854 41.85,-1.24448 41.85,1.6817 41.85,-0.83209 41.85,0.37717 41.85,-0.61901 41.85,0.67334 41.85,0.50718 41.85,-1.0944 41.85,0.59313 41.85,0.73054 41.85,0.16098 41.85,-1.2035 41.85,0.14152 41.85,0.23412 41.85,0.46577 41.85,0.59623 41.85,-0.72523 41.85,-0.23502 41.85,0.32541 41.85,-0.45674 41.85,0.47578 41.85,0.62265 41.85,-1.63687 41.85,-1.50591 41.85,0.39592 41.85,1.55454 41.85,-2.11604 41.85,3.65632 41.85,-0.85266 41.85,0.42319 41.85,-0.34405 41.85,0.27993 41.85,-0.61364 v 0.83791 0 l -41.85,0.60958 -41.85,-0.38116 -41.85,0.95692 -41.85,-0.38628 -41.85,-0.033 -41.85,-0.4595 -41.85,0.2878 -41.85,-0.86512 -41.85,0.26852 -41.85,0.80718 -41.85,0.59293 -41.85,-1.04793 -41.85,-0.16983 -41.85,0.81351 -41.85,-0.76168 -41.85,-0.25604 -41.85,0.59991 -41.85,0.38938 -41.85,-0.35247 -41.85,-0.48209 -41.85,0.5655 -41.85,-0.0472 -41.85,-0.0966 -41.85,-1.21263 -41.85,1.46864 -41.85,-0.54367 -41.85,-0.0875 -41.85,-0.3958 -41.85,1.16333 -41.85,-0.51371 -41.85,-0.71994 -41.85,0.70278 -41.85,-0.74224 -41.85,1.19253 -41.85,-0.51286 -41.85,-0.59249 -41.85,0.73101 -41.85,-0.88018 -41.85,1.5684 -41.85,-0.72998 -41.85,-0.0247 -41.85,-1.29418 -41.85,1.12227 -41.85,0.46759 -41.85,-1.02054 -41.85,1.14564 -41.85,-0.69717 -41.85,0.0837 -41.85,0.17404 -41.85,0.12149 -41.85,-0.50742 -41.85,0.81267 -41.85,-1.24843 -41.85,0.86227 -41.85,0.0356 -41.85,-0.63912 -41.85,0.26008 -41.85,0.34911 -41.85,0.33183 -41.85,-1.70104 -41.85,1.14444 -41.85,0.59255 -41.85,-0.29303 -41.8496,0.1406 -41.85,-0.6518 -41.85,-0.65339 -41.85,0.98856 -41.85,-0.8519 -41.85,-0.15248 -41.85,1.37777 -41.85,-0.62178 -41.85,0.0281 -41.85,-0.19291 -41.85,0.14969 -41.85,-1.02106 -41.85,1.71924 -41.85,-0.50546 -41.85,0.34111 -41.85,-0.44591 -41.85,0.5162 -41.85,-1.51508 -41.85,0.87095 -41.85,-0.76874 -41.85,1.50028 -41.85,-0.85136 -41.85,0.39977 -41.85,-0.1925 -41.85,-0.35286 -41.85,1.10581 -41.85,-2.06577 -41.85,0.92038 -41.85,0.75782 -41.85,-0.96626 -41.85,-0.61027 -41.85,1.64005 -41.85,-0.60026 -41.85,-0.0734 -41.85,0.16454 -41.85,-1.14156 -41.85,1.34283 -41.85,-1.21924 -41.85,-0.0752 -41.85,1.03627 -41.85,-0.0806 -41.85,-0.7927 -41.85,0.072 -41.85,0.3609 -41.85,1.24675 -41.85,-1.12551 -41.85,-0.31226 -41.85,0.18093 -41.85,0.49089 -41.85,-0.56028 -41.85,-0.94457 -41.85,0.78649 -41.85,-1.02448 -41.85,2.11904 -41.85,-1.08829 -41.85,0.88687 -41.85,-0.52159 -41.85,-0.52665 -41.85,0.42822 -41.85,0.90601 -41.85,-0.62845 -41.85,-0.27757 -41.85,-0.20178 -41.85,-0.20937 -41.85,0.94203 -41.85,-1.23886 -41.85,0.72392 -41.85,0.24147 -41.85,0.0829 -41.85,-1.24065 -41.85,0.0956 -41.85,0.10093 -41.85,0.6692 -41.85,-0.30791 -41.85,0.18191 -41.85,-0.82768 -41.85,-0.19689 -41.85,0.38176 -41.85,0.0801 -41.85,-0.8144 -41.85,1.53624 -41.85,0.17028 -41.85,-1.43552 -41.85,0.96782 -41.85,-1.41452 -41.85,0.97135 -41.85,0.57663 -41.85,-1.27855 -41.85,0.81682 -41.85,-0.26316 -41.85,-0.27443 -41.85,-0.29246 -41.85,0.77245 -41.85,-0.81231 -41.85,1.0057 -41.85,0.14665 -41.85,-1.31176 -41.85,0.32243 -41.85,0.11587 -41.85,-0.12621 -41.85,-0.17638 -41.85,0.29147 -41.85,0.75507 -41.85,-1.69391 -41.85,1.63834 -41.85,-0.53992 -41.85,-0.80048 -41.85,0.71374 -41.85,1.23435 -41.85,-1.46969 -41.85,0.33434 -41.85,-0.66136 -41.85,0.709 -41.85,-1.07712 -41.85,1.97644 -41.85,-0.83605 -41.85,-0.96261 -41.85,-0.0555 -41.85,0.59307 -41.85,0.55716 -41.85,-1.47101 -41.85,0.30232 -41.85,0.5166 -41.85,-0.65046 -41.85,1.49535 -41.85,-0.63086 -41.85,-1.27064 -41.85,0.65654 -41.85,-0.30902 -41.85,0.65154 -41.85,-1.07037 -41.85,0.0911 -41.85,0.12424 -41.85,0.16545 -41.85,0.17425 -41.85,-1.16324 -41.85,0.50289 -41.85,1.47193 -41.85,-1.27244 -41.85,0.12159 -41.85,-0.64968 -41.85,1.80736 -41.85,-0.91025 -41.85,-1.23819 -41.85,0.13977 -41.85,-0.27609 -41.85,-0.0877 -41.85,-0.0119 -41.85,0.95036 -41.85,1.17291 -41.85,-1.69457 -41.85,0.35184 -41.85,0.60383 -41.85,-0.30409 -41.85,-0.0618 -41.85,-1.26325 -41.85,0.65725 -41.85,1.49302 -41.85,-2.08184 -41.85,-0.58429 -41.85,0.15074 -41.85,1.99834 -41.85,-1.11694 -41.85,0.19605 -41.85,-1.05167 -41.85,0.96442 -41.85,-0.13092 -41.85,-0.56879 -41.85,1.21861 -41.85,-0.65788 -41.85,-0.0283 -41.85,-0.35076 -41.85,0.94115 -41.85,-2.42079 -41.85,0.80852 -41.85,-1.17463 -41.85,1.30828 -41.85,-0.45139 -41.85,0.43099 -41.85,0.009 -41.85,-0.60945 -41.85,-0.61617 -41.85,-1.20442 -41.85,1.75814 -41.85,0.59958 -41.85,-0.34885 -41.85,0.21833 -41.85,-2.13661 -41.85,2.05234 -41.85,-1.39146 -41.85,-0.37146 -41.85,0.55547 -41.85,-0.20411 -41.85,-0.25714 -41.85,1.32254 -41.85,-3.05969 -41.85,1.76339 -41.85,0.67136 -41.85,-2.23867 -41.85,2.20108 -41.85,-1.05195 -41.85,-3.02061 -41.85,1.3314 -41.85,1.51283 -41.85,-1.02723 -41.85,-0.29258 -41.85,-1.36364 -41.85,-0.79075 -41.85,1.06011 -41.85,-0.47244 -41.85,0.39956 -41.85,-0.49349 -41.85,0.20321 -41.85,-2.17489 -41.85,0.47949 -41.85,-2.32397 -41.85002,0.90669 -41.85,0.86159 -41.85,-0.48639 -41.85,-4.25258 -41.85,0.72131 -41.85,-2.54748 -41.85,2.53903 -41.85,-1.70621 -41.85,-3.5886 -41.85,0.29307 -41.85,-4.2533 -41.85001,0.0774 -41.85,-1.2715 -41.85,-8.04922 -41.85,-7.61045 -41.85,-0.33873 -41.85,-14.0036 -41.85,-21.84814 -41.85,-19.70283 -41.85,-66.46127 -41.85,-153.99951 z"
         style="fill:#377eb8;fill-opacity:0.2;fill-rule:nonzero;stroke:#ffffff;stroke-width:1;stroke-linecap:butt;stroke-linejoin:round;stroke-miterlimit:10;stroke-dasharray:none;stroke-opacity:0.2"
         transform="matrix(0.33116,0,0,-0.33116,73.92,265.25067)"
         clip-path="url(#clipPath55)"
         id="path119" /><path
         d="m 80.434375,71.184258 v -2.01903 l 41.849995,52.512932 41.85,123.57664 41.85,74.3176 41.85,40.06 41.85,37.10143 41.85,13.12492 41.85,27.92245 41.85,4.81177 41.85,8.06193 41.85,8.83753 41.85001,2.99085 41.85,3.86938 41.85,0.39553 41.85,4.86072 41.85,0.87277 41.85,1.24925 41.85,0.35942 41.85,0.77626 41.85,3.76922 41.85,-1.91602 41.85,4.59971 41.85002,0.48755 41.85,4.27914 41.85,-0.85035 41.85,-2.60309 41.85,0.32101 41.85,2.679 41.85,-0.32877 41.85,-0.4536 41.85,2.62326 41.85,-3.20238 41.85,5.06185 41.85,-2.30003 41.85,0.48017 41.85,2.19807 41.85,0.8805 41.85,-0.60496 41.85,2.18023 41.85,0.51242 41.85,-4.77549 41.85,2.642 41.85,1.82487 41.85,-2.14639 41.85,0.20765 41.85,-2.24364 41.85,5.96012 41.85,-2.94916 41.85,1.86231 41.85,1.78583 41.85,-2.10513 41.85,-1.71268 41.85,4.76694 41.85,-2.54599 41.85,1.19175 41.85,0.0866 41.85,-0.2318 41.85,0.77718 41.85,-0.0349 41.85,-2.75951 41.85,1.62766 41.85,2.65887 41.85,-1.48712 41.85,1.66379 41.85,-2.63411 41.85,2.21724 41.85,-0.69729 41.85,-0.1581 41.85,0.28461 41.85,0.87719 41.85,-0.48722 41.85,-0.38857 41.85,-0.26469 41.85,0.39192 41.85,0.31573 41.85,0.0217 41.85,1.20486 41.85,0.0965 41.85,-1.73801 41.85,1.18205 41.85,-1.28859 41.85,3.16924 41.85,-0.56549 41.85,-2.82079 41.85,1.55018 41.85,-1.07135 41.85,4.03834 41.85,-3.90625 41.85,1.28496 41.85,-0.35905 41.85,0.66178 41.85,-0.90395 41.85,3.04679 41.85,-0.89188 41.85,-1.29006 41.85,-0.65947 41.85,0.31317 41.85,0.66225 41.85,-0.59953 41.85,1.65759 41.85,-0.89597 41.85,2.20623 41.85,-1.85662 41.85,-0.0918 41.85,1.76239 41.85,-0.96143 41.85,-0.50689 41.85,1.48687 41.85,-1.57899 41.85,-0.12768 41.85,0.66313 41.85,0.71179 41.85,1.7014 41.85,-2.70426 41.85,-1.16637 41.85,2.62322 41.85,-0.46577 41.85,-0.96862 41.85,-0.01 41.85,1.07661 41.85,-0.24538 41.85,1.18697 41.85,0.0886 41.85,-1.58985 41.85,-0.22456 41.85,1.26936 41.85,-1.61927 41.85,1.64321 41.85,-0.4228 41.85,-0.45836 41.85,1.08289 41.85,0.68546 41.85,-1.62917 41.85,1.64142 41.85,-0.22122 41.85,-0.35077 41.85,-1.65816 41.85,2.66538 41.85,-1.30819 41.85,1.69729 41.85,-1.46839 41.85,-0.51038 41.85,0.75632 41.85,0.13184 41.85,-1.05763 41.85,1.68392 41.85,-1.61044 41.85,0.85412 41.85,-0.66642 41.85,-0.5507 41.85,-0.0897 41.85,0.48446 41.85,1.38478 41.85,-0.56133 41.85,-0.22697 41.85,0.0953 41.85,0.16 41.85,0.89556 41.85,0.25713 41.85,-64.94107 41.85,64.81037 41.85,-0.51516 41.85,0.37617 41.85,-0.658 41.85,0.19183 41.85,-0.24056 41.85,0.31467 41.85,1.28179 41.85,-1.6117 41.85,1.54077 41.85,0.50418 41.85,-1.09368 41.85,-0.096 41.85,-0.89105 41.85,0.95457 41.85,-1.0863 41.85,2.22127 41.85,-2.12357 41.85,0.20044 41.85,0.5978 41.85,0.80847 41.85,0.66926 41.85,-2.71365 41.85,2.22717 41.85,-0.57805 41.85,0.25229 41.85,-0.83696 41.85,0.12224 41.85,2.22717 41.85,-2.67743 41.85,-1.30664 41.85,3.66913 41.85,-1.26066 41.85,1.32675 41.85,-1.29655 41.85,-0.42215 41.85,0.0995 41.85,1.43243 41.85,-0.82722 41.85,-0.29547 41.85,1.53261 41.85,-0.9077 41.85,1.14027 41.85,-66.7969 41.85,65.46628 41.85,-0.0242 41.85,-1.85544 41.85,1.84232 41.85,-2.77529 41.85,2.43252 41.85,0.12007 41.85,-1.13543 41.85,1.22694 41.85,-0.31675 41.85,1.57157 41.85,-1.55107 41.85,0.14142 41.85,-0.53063 41.85,0.68583 41.85,0.46324 41.85,0.38794 41.85,0.0865 41.85,-0.60359 41.85,0.19917 41.85,0.11039 41.85,0.008 41.85,0.54439 41.85,-0.14288 41.85,-0.29433 41.85,-0.88966 41.85,1.63172 41.85,-0.72458 41.85,0.0385 41.85,0.25641 41.85,0.29729 41.85,-0.48808 41.85,-0.0643 41.85,0.51746 41.8496,-0.0209 41.85,-1.12383 41.85,0.38479 41.85,0.41961 41.85,0.61121 41.85,-0.79016 41.85,0.26278 41.85,0.0864 41.85,-0.94386 41.85,0.45577 41.85,0.2766 41.85,-1.74921 41.85,1.90338 41.85,0.65839 41.85,0.55237 41.85,-2.24508 41.85,2.05156 41.85,-1.13863 41.85,1.0831 41.85,-1.80251 41.85,1.96318 41.85,0.0181 41.85,-0.51022 41.85,-1.36536 41.85,0.54534 41.85,-1.63483 41.85,1.71223 41.85,-2.57147 41.85,0.84001 41.85,-0.37112 41.85,1.89766 41.85,-0.98676 41.85,2.98475 41.85,-1.64244 41.85,1.25987 41.85,-0.58954 41.85,-0.7565 41.85,-0.87072 41.85,1.48846 41.85,0.25143 41.85,-0.0235 41.85,-1.00865 41.85,0.007 41.85,0.16225 41.85,0.13925 41.85,-0.98999 41.85,1.75461 41.85,0.0256 41.85,-0.47573 41.85,0.31273 41.85,-1.22051 41.85,1.24082 41.85,-0.19415 41.85,-1.21746 41.85,1.08996 41.85,-0.54077 41.85,-0.41622 41.85,0.58593 41.85,-0.82573 41.85,1.33493 41.85,0.11504 41.85,-0.57657 41.85,-0.70417 41.85,1.03986 41.85,-0.31005 41.85,-0.82014 41.85,0.81643 41.85,-1.88823 41.85,2.37041 41.85,0.27269 41.85,-2.20126 41.85,3.27659 41.85,-0.55176 41.85,-0.16311 41.85,-0.48707 41.85,-0.57922 41.85,-0.0955 41.85,-0.2505 41.85,0.51833 41.85,-0.0279 41.85,-1.73276 41.85,1.77317 41.85,-2.63727 41.85,2.29729 41.85,-0.47527 41.85,0.83106 v 2.77961 0 l -41.85,0.20222 -41.85,-0.86506 -41.85,-0.91772 -41.85,1.74539 -41.85,-2.32163 -41.85,0.42053 -41.85,1.50652 -41.85,-1.86346 -41.85,1.52226 -41.85,0.70031 -41.85,-0.36352 -41.85,0.0802 -41.85,-0.56273 -41.85,1.24401 -41.85,-1.26685 -41.85,0.58586 -41.85,-0.63743 -41.85,-0.91553 -41.85,1.29102 -41.85,-1.76178 -41.85,1.04266 -41.85,1.01776 -41.85,-0.6719 -41.85,-0.57628 -41.85,0.006 -41.85,0.40487 -41.85,-0.17622 -41.85,-0.9218 -41.85,0.84826 -41.85,0.27969 -41.85,-0.0223 -41.85,-0.27525 -41.85,0.0921 -41.85,0.54777 -41.85,0.0343 -41.85,-0.0565 -41.85,-0.87747 -41.85,0.36146 -41.85,0.32031 -41.85,0.26855 -41.85,-0.23515 -41.85,-0.14278 -41.85,-0.1024 -41.85,0.38278 -41.85,-0.90865 -41.85,1.73377 -41.85,-1.86033 -41.85,-0.10868 -41.85,2.011 -41.85,-0.94074 -41.85,-0.0837 -41.85,-1.21361 -41.85,1.28412 -41.85,-1.1099 -41.85,1.14677 -41.85,-0.92142 -41.85,-0.87109 -41.85,0.75707 -41.85,-0.4713 -41.85,0.73533 -41.85,0.42831 -41.85,-1.792 -41.85,2.31712 -41.85,-0.72522 -41.85,0.73423 -41.85,-1.05229 -41.85,0.67906 -41.85,-0.54466 -41.85,1.21155 -41.85,-0.73188 -41.85,1.20154 -41.85,0.14419 -41.85,-1.00933 -41.85,-1.47518 -41.85,0.82501 -41.85,0.66442 -41.85,-0.56773 -41.85,-0.77581 -41.85,0.18025 -41.85,0.44667 -41.85,-0.14392 -41.85,0.78496 -41.85,-1.20917 -41.85,-0.26061 -41.85,0.0437 -41.8496,0.47368 -41.85,0.23581 -41.85,-0.57373 -41.85,0.62068 -41.85,0.43161 -41.85,-1.2168 -41.85,-0.0722 -41.85,1.39599 -41.85,-1.90285 -41.85,0.72013 -41.85,0.58031 -41.85,0.24599 -41.85,-0.46481 -41.85,0.12617 -41.85,-0.16329 -41.85,-0.19488 -41.85,0.33669 -41.85,0.49453 -41.85,-1.48194 -41.85,0.36033 -41.85,0.11561 -41.85,0.11534 -41.85,-0.54926 -41.85,1.44774 -41.85,-0.40806 -41.85,-0.64474 -41.85,-0.99669 -41.85,0.70496 -41.85,0.45565 -41.85,-1.32451 -41.85,0.40192 -41.85,-0.0396 -41.85,0.52589 -41.85,0.18049 -41.85,-2.07734 -41.85,2.39057 -41.85,-0.23158 -41.85,2.78079 -41.85,-2.30692 -41.85,-0.2405 -41.85,0.0994 -41.85,-1.28248 -41.85,0.1788 -41.85,1.45346 -41.85,-0.0611 -41.85,-0.8583 -41.85,0.34463 -41.85,-0.34998 -41.85,0.27576 -41.85,0.19767 -41.85,-1.52114 -41.85,0.7849 -41.85,0.19877 -41.85,0.67749 -41.85,0.17043 -41.85,-2.21084 -41.85,1.79109 -41.85,-0.81817 -41.85,0.3831 -41.85,-0.17297 -41.85,-1.11419 -41.85,0.90501 -41.85,-1.19133 -41.85,1.78609 -41.85,-0.68808 -41.85,0.92972 -41.85,-1.174 -41.85,1.84043 -41.85,-0.35783 -41.85,-1.73634 -41.85,2.2573 -41.85,-1.80318 -41.85,1.22722 -41.85,-1.34091 -41.85,0.35252 -41.85,-1.14474 -41.85,0.94725 -41.85,-0.57909 -41.85,0.0643 -41.85,0.95407 -41.85,-0.95659 -41.85,-1.24665 -41.85,2.39047 -41.85,-1.31795 -41.85,0.72874 -41.85,-0.99834 -41.85,-0.3078 -41.85,0.25306 -41.85,-0.45076 -41.85,0.0716 -41.85,0.34059 -41.85,1.32137 -41.85,0.16959 -41.85,-1.42455 -41.85,2.05754 -41.85,-2.43863 -41.85,2.7556 -41.85,-2.11447 -41.85,1.57275 -41.85,-1.63041 -41.85,0.0837 -41.85,-0.4686 -41.85,-0.0613 -41.85,0.10494 -41.85,2.00802 -41.85,-2.3863 -41.85,-0.0726 -41.85,0.73597 -41.85,-1.18592 -41.85,-0.2955 -41.85,2.18426 -41.85,-0.69919 -41.85,-1.27578 -41.85,0.94147 -41.85,-0.0207 -41.85,0.5031 -41.85,-0.31999 -41.85,-1.05794 -41.85,-0.0759 -41.85,-0.15779 -41.85,-0.395 -41.85,0.64321 -41.85,-1.14155 -41.85,-10e-4 -41.85,2.4097 -41.85,-0.21514 -41.85,-0.91135 -41.85,-0.71144 -41.85,-1.43475 -41.85,1.74951 -41.85,0.69011 -41.85,0.34824 -41.85,-0.97089 -41.85,1.16898 -41.85,-1.05326 -41.85,-0.38367 -41.85,2.52642 -41.85,-3.94086 -41.85,1.15628 -41.85,0.026 -41.85,-1.33263 -41.85,0.97307 -41.85,0.0513 -41.85,0.8597 -41.85,-0.22176 -41.85,0.51032 -41.85,-1.9498 -41.85,0.76161 -41.85,0.51317 -41.85,-0.99824 -41.85,-1.4593 -41.85,3.97719 -41.85,-1.13621 -41.85,-1.32516 -41.85,-0.1983 -41.85,0.35399 -41.85,0.23527 -41.85,-1.65661 -41.85,-0.11585 -41.85,0.78061 -41.85,-1.07148 -41.85,1.61541 -41.85,0.22494 -41.85,-0.22462 -41.85,-2.11145 -41.85,2.0321 -41.85,-1.37376 -41.85,0.95025 -41.85,-0.19771 -41.85,-1.4049 -41.85,0.76722 -41.85,-1.69373 -41.85,1.4971 -41.85,-1.0572 -41.85,0.71779 -41.85,-0.5237 -41.85,3.03808 -41.85,-2.43536 -41.85,-2.99349 -41.85,0.90888 -41.85,1.37107 -41.85,-0.12123 -41.85,-1.25869 -41.85,2.03669 -41.85,-2.47891 -41.85,4.79716 -41.85,-5.12722 -41.85,-0.60775 -41.85,1.18178 -41.85,-0.0151 -41.85,-0.78485 -41.85,-0.48644 -41.85,0.8361 -41.85,-1.96147 -41.85,2.43989 -41.85,-1.05165 -41.85,-3.0999 -41.85,0.95079 -41.85,1.77951 -41.85,-1.2062 -41.85,0.91805 -41.85,-0.8396 -41.85,-0.0932 -41.85,-2.21916 -41.85,1.32222 -41.85,0.55109 -41.85,-2.23633 -41.85,-0.011 -41.85,-0.85455 -41.85,-0.72361 -41.85,-0.38303 -41.85,-2.2422 -41.85,-0.067 -41.85,2.15834 -41.85,-1.00902 -41.85,1.32521 -41.85002,-2.59351 -41.85,-3.6582 -41.85,-1.11994 -41.85,0.44918 -41.85,-0.70223 -41.85,-4.49795 -41.85,0.57296 -41.85,0.31433 -41.85,-4.03917 -41.85,-5.9758 -41.85,2.48217 -41.85001,-3.56478 -41.85,-12.80832 -41.85,-4.02105 -41.85,-5.37293 -41.85,-13.32456 -41.85,-19.75968 -41.85,-27.43991 -41.85,-45.03212 -41.85,-78.29402 -41.85,-117.67172 -41.849995,-72.209062 z"
         style="fill:#a65628;fill-opacity:0.2;fill-rule:nonzero;stroke:#ffffff;stroke-width:1;stroke-linecap:butt;stroke-linejoin:round;stroke-miterlimit:10;stroke-dasharray:none;stroke-opacity:0.2"
         transform="matrix(0.33116,0,0,-0.33116,73.92,265.25067)"
         clip-path="url(#clipPath56)"
         id="path120" /><path
         d="m 80.434375,68.02784 v -0.879606 l 41.849995,2.067881 41.85,7.54002 41.85,1.215296 41.85,12.032205 41.85,4.669645 41.85,7.375129 41.85,12.9171 41.85,17.67897 41.85,25.86155 41.85,23.49789 41.85001,23.59924 41.85,16.70264 41.85,19.00925 41.85,14.01349 41.85,8.8585 41.85,26.67541 41.85,7.78307 41.85,4.18229 41.85,17.17674 41.85,18.81792 41.85,-4.99036 41.85002,2.23211 41.85,6.9074 41.85,1.8864 41.85,11.96955 41.85,-2.83673 41.85,10.59451 41.85,12.06015 41.85,-2.35375 41.85,2.98988 41.85,-0.45901 41.85,8.62899 41.85,7.22096 41.85,-4.67406 41.85,10.14085 41.85,-0.89219 41.85,-3.74107 41.85,7.35794 41.85,-2.93346 41.85,11.69279 41.85,2.71013 41.85,0.59552 41.85,1.88081 41.85,-3.8521 41.85,3.90172 41.85,-0.92159 41.85,1.4344 41.85,13.14333 41.85,-9.93352 41.85,6.91043 41.85,-2.23544 41.85,4.14219 41.85,-2.73557 41.85,-0.0596 41.85,9.20159 41.85,-8.96273 41.85,8.28475 41.85,-3.8653 41.85,4.52919 41.85,1.03021 41.85,0.87912 41.85,1.4059 41.85,1.52241 41.85,-3.61856 41.85,4.57899 41.85,5.074 41.85,-8.91751 41.85,4.32214 41.85,-0.93806 41.85,3.64255 41.85,6.31678 41.85,-6.59479 41.85,-3.91399 41.85,5.14969 41.85,-1.33904 41.85,11.08317 41.85,-2.84107 41.85,-0.44552 41.85,-7.22663 41.85,3.69684 41.85,7.11742 41.85,-13.14176 41.85,4.83331 41.85,2.21901 41.85,-0.11352 41.85,7.28808 41.85,-9.03455 41.85,2.94092 41.85,-1.13532 41.85,8.74855 41.85,-9.99885 41.85,5.42959 41.85,-1.53759 41.85,-5.5088 41.85,7.91038 41.85,5.16472 41.85,-4.81552 41.85,-0.9259 41.85,3.10982 41.85,-1.50798 41.85,4.94007 41.85,-5.56791 41.85,2.85795 41.85,-2.7728 41.85,2.40652 41.85,3.44669 41.85,-1.17815 41.85,0.0246 41.85,1.12659 41.85,2.38602 41.85,2.47581 41.85,-5.07635 41.85,0.74521 41.85,2.02341 41.85,-1.48882 41.85,-2.26982 41.85,2.17291 41.85,-0.82501 41.85,1.67973 41.85,1.82987 41.85,-2.53619 41.85,-2.35744 41.85,-0.20623 41.85,3.49947 41.85,5.38972 41.85,-5.16198 41.85,0.40965 41.85,0.59086 41.85,3.58026 41.85,2.70247 41.85,-6.96385 41.85,3.06522 41.85,-6.48769 41.85,5.00962 41.85,2.66544 41.85,-1.29844 41.85,0.83206 41.85,1.83863 41.85,-2.50885 41.85,3.51944 41.85,-4.36345 41.85,1.21646 41.85,2.50155 41.85,0.71902 41.85,-3.69714 41.85,-0.11407 41.85,-0.17229 41.85,-3.84114 41.85,7.03056 41.85,-4.49004 41.85,-0.46281 41.85,1.80521 41.85,2.01083 41.85,-5.05962 41.85,5.68072 41.85,-3.59406 41.85,3.54216 41.85,4.37546 41.85,-2.2176 41.85,0.84448 41.85,-4.19917 41.85,-0.42532 41.85,3.7772 41.85,0.17114 41.85,-0.30798 41.85,0.0854 41.85,-5.36066 41.85,7.72188 41.85,-0.50847 41.85,-5.69199 41.85,4.17941 41.85,3.81899 41.85,-3.75196 41.85,-5.02119 41.85,4.04265 41.85,-1.44591 41.85,2.34536 41.85,-0.67351 41.85,2.77108 41.85,-0.0595 41.85,-4.05104 41.85,0.71995 41.85,2.13912 41.85,3.85648 41.85,-2.44059 41.85,0.3407 41.85,-1.34642 41.85,-0.93241 41.85,-1.59854 41.85,1.88565 41.85,1.34857 41.85,-5.81423 41.85,-0.52856 41.85,2.75113 41.85,2.53957 41.85,2.21921 41.85,0.0802 41.85,0.12914 41.85,-0.89785 41.85,1.27241 41.85,-1.79621 41.85,-3.67593 41.85,-1.6348 41.85,2.09944 41.85,3.88646 41.85,0.12852 41.85,0.58722 41.85,0.94568 41.85,-1.9952 41.85,2.24529 41.85,-3.11633 41.85,-1.00906 41.85,2.47374 41.85,-1.23019 41.85,1.12824 41.85,-1.93188 41.85,3.59762 41.85,-1.40194 41.85,2.30241 41.85,-2.44958 41.85,-3.00585 41.85,-0.4749 41.85,5.72315 41.85,-1.15056 41.85,-2.59776 41.85,7.27278 41.85,-2.42119 41.85,-5.92354 41.85,5.83908 41.85,-4.04178 41.85,4.42499 41.85,-2.2344 41.85,0.86925 41.85,-0.34765 41.85,3.43979 41.85,-5.0353 41.85,2.35253 41.8496,1.02861 41.85,-2.31054 41.85,0.65556 41.85,-0.1752 41.85,3.50375 41.85,-2.46795 41.85,-0.67813 41.85,2.09652 41.85,-3.17028 41.85,-0.71772 41.85,0.61048 41.85,0.54265 41.85,3.18467 41.85,-6.70897 41.85,2.51016 41.85,-1.86144 41.85,6.82924 41.85,-4.80936 41.85,-0.14279 41.85,4.83614 41.85,3.25428 41.85,-6.73038 41.85,3.99834 41.85,-3.744 41.85,-3.64456 41.85,5.9712 41.85,-1.28906 41.85,3.49627 41.85,-5.22791 41.85,0.69841 41.85,-0.76093 41.85,1.8675 41.85,1.46466 41.85,-1.80539 41.85,-0.98965 41.85,3.01907 41.85,0.5505 41.85,-2.68948 41.85,3.70998 41.85,1.12165 41.85,-2.74105 41.85,1.22947 41.85,-4.4 41.85,-0.71423 41.85,3.90049 41.85,-1.83415 41.85,1.20892 41.85,2.13705 41.85,0.0446 41.85,-0.30434 41.85,-3.99406 41.85,5.44165 41.85,-1.51991 41.85,1.09242 41.85,-2.85015 41.85,-1.5222 41.85,-0.87923 41.85,2.22122 41.85,-0.0349 41.85,-2.14551 41.85,4.13701 41.85,-0.7686 41.85,1.16828 41.85,-4.06617 41.85,1.75021 41.85,-3.35307 41.85,1.10112 41.85,2.6909 41.85,0.67847 41.85,-1.37743 41.85,-0.19096 41.85,-0.60845 41.85,0.41385 41.85,1.38694 41.85,0.13376 41.85,1.12735 41.85,-2.5857 41.85,-1.67755 41.85,2.08441 41.85,3.65111 41.85,-0.79912 41.85,-7.86541 41.85,6.51957 41.85,0.5229 41.85,-0.11869 41.85,0.0732 41.85,-2.41164 41.85,5.4845 41.85,-2.8582 41.85,0.005 41.85,-2.09905 41.85,0.68941 41.85,-1.28666 41.85,2.85174 41.85,-0.68234 41.85,-1.94877 41.85,2.34484 41.85,-1.76883 41.85,-1.64297 41.85,6.98541 41.85,-3.60442 41.85,0.77372 41.85,0.91198 41.85,1.38375 41.85,-3.81238 41.85,-0.26247 41.85,0.21764 41.85,2.46233 41.85,1.19007 41.85,-3.03781 41.85,-2.97152 41.85,1.16411 41.85,1.10177 41.85,-2.31089 41.85,-0.11096 41.85,3.29697 41.85,-0.488 41.85,0.88301 41.85,-1.09569 41.85,1.19722 41.85,1.2246 41.85,2.18235 41.85,-6.93186 41.85,2.02509 41.85,1.36778 41.85,1.21477 41.85,-2.02985 41.85,-1.28202 41.85,-0.66113 41.85,4.11064 41.85,-1.28878 41.85,-2.08069 41.85,2.8548 41.85,1.20984 41.85,-3.43548 41.85,1.18832 41.85,0.17027 41.85,-1.45846 41.85,2.16411 41.85,-4.2046 41.85,2.32542 41.85,0.89714 41.85,2.31545 41.85,-4.89327 41.85,4.66955 41.85,1.08424 41.85,-4.04473 41.85,2.54803 41.85,1.03458 41.85,0.21296 41.85,-1.76383 41.85,-0.65341 41.85,-1.66143 41.85,0.21743 41.85,2.60848 41.85,2.4559 41.85,-1.66718 41.85,-0.28195 41.85,-2.11192 41.85,0.71326 41.85,-3.59639 41.85,0.74516 41.85,-0.61877 41.85,4.08317 41.85,-6.33475 41.85,5.74053 v 3.56286 0 l -41.85,1.74069 -41.85,4.37931 -41.85,-5.59314 -41.85,-1.38281 -41.85,0.33197 -41.85,0.90571 -41.85,0.8244 -41.85,3.91062 -41.85,-1.55647 -41.85,0.14945 -41.85,-2.37291 -41.85,-3.961 -41.85,2.59553 -41.85,1.55044 -41.85,0.11207 -41.85,-0.1536 -41.85,4.93271 -41.85,-1.06279 -41.85,-4.28099 -41.85,3.07073 -41.85,-4.62232 -41.85,-0.84904 -41.85,1.60231 -41.85,0.5247 -41.85,2.06511 -41.85,-3.39345 -41.85,2.47488 -41.85,-2.00555 -41.85,3.26363 -41.85,-2.89542 -41.85,-0.4306 -41.85,0.89502 -41.85,-0.92093 -41.85,1.23644 -41.85,-0.91516 -41.85,2.25271 -41.85,-3.31787 -41.85,2.50965 -41.85,3.10714 -41.85,-4.68729 -41.85,2.28232 -41.85,-2.50798 -41.85,0.67676 -41.85,4.61114 -41.85,-0.2841 -41.85,-3.82363 -41.85,4.62089 -41.85,-6.37984 -41.85,-2.37685 -41.85,4.78859 -41.85,-3.64242 -41.85,2.14142 -41.85,3.75706 -41.85,-2.39295 -41.85,-2.08384 -41.85,4.62429 -41.85,-3.70819 -41.85,2.26204 -41.85,-1.31444 -41.85,-0.4547 -41.85,0.42558 -41.85,2.00996 -41.85,-1.17864 -41.85,-0.82419 -41.85,-2.4483 -41.85,3.46673 -41.85,-1.32726 -41.85,-0.84482 -41.85,-0.0438 -41.85,0.082 -41.85,1.44023 -41.85,1.00694 -41.85,-4.28317 -41.85,2.5515 -41.85,-3.13008 -41.85,3.16408 -41.85,2.26969 -41.85,-1.54921 -41.85,-2.6491 -41.85,4.16814 -41.85,-2.6508 -41.85,-2.0589 -41.85,2.63993 -41.85,-4.11312 -41.85,4.38368 -41.85,-2.25 -41.85,-0.52154 -41.85,-2.7877 -41.85,3.14106 -41.85,1.48322 -41.85,0.2389 -41.85,-0.26014 -41.85,-0.81092 -41.85,3.99351 -41.85,-2.5961 -41.85,-0.98304 -41.85,-0.73288 -41.85,0.70139 -41.85,-2.96526 -41.85,0.98394 -41.85,-0.71817 -41.85,-0.38199 -41.85,1.85484 -41.85,-1.93479 -41.85,3.57792 -41.85,-1.24292 -41.85,1.62815 -41.85,-0.87472 -41.85,-2.56521 -41.85,-1.3786 -41.85,2.80454 -41.85,2.28721 -41.85,-0.82869 -41.85,1.52756 -41.85,-1.0552 -41.85,3.61432 -41.85,-4.07772 -41.85,-1.36563 -41.85,-1.20745 -41.85,-0.0199 -41.85,3.09835 -41.85,-3.4868 -41.85,0.33329 -41.85,2.28043 -41.85,-0.33142 -41.85,1.02703 -41.85,0.64465 -41.85,-1.83939 -41.85,0.69031 -41.85,0.12481 -41.85,-2.59366 -41.85,1.20915 -41.85,-2.14387 -41.85,0.2327 -41.85,0.21489 -41.85,0.24592 -41.85,-0.61191 -41.85,5.46041 -41.85,-5.38578 -41.85,3.15368 -41.85,-4.87976 -41.85,7.55899 -41.85,-1.7313 -41.85,-4.46061 -41.85,5.92298 -41.85,-2.15825 -41.85,-5.03841 -41.85,-0.17302 -41.85,3.06803 -41.85,1.09085 -41.85,-2.94927 -41.85,0.1761 -41.85,3.03951 -41.85,-0.14859 -41.85,-4.29178 -41.85,1.9585 -41.85,-1.28159 -41.85,3.23914 -41.85,-2.07339 -41.85,4.18497 -41.85,-3.50895 -41.85,-0.20967 -41.85,-1.78543 -41.85,2.31364 -41.85,2.33406 -41.8496,-3.56326 -41.85,0.51816 -41.85,0.35036 -41.85,-0.67487 -41.85,1.53007 -41.85,-1.12394 -41.85,2.84086 -41.85,-3.76586 -41.85,0.75721 -41.85,-1.44959 -41.85,3.03273 -41.85,2.89823 -41.85,-1.21635 -41.85,-3.57506 -41.85,1.37779 -41.85,-4.77403 -41.85,1.86642 -41.85,-0.30614 -41.85,2.02442 -41.85,0.20829 -41.85,1.18427 -41.85,-6.9492 -41.85,2.35343 -41.85,-1.10974 -41.85,4.16672 -41.85,-3.61152 -41.85,3.35196 -41.85,2.07293 -41.85,-2.30185 -41.85,1.32599 -41.85,0.30174 -41.85,-0.68974 -41.85,-2.9207 -41.85,-3.07392 -41.85,5.16037 -41.85,-3.66348 -41.85,-0.49075 -41.85,2.14044 -41.85,-3.15733 -41.85,4.24567 -41.85,2.75427 -41.85,-2.55268 -41.85,0.31546 -41.85,-2.33867 -41.85,1.65802 -41.85,-1.04099 -41.85,1.25427 -41.85,-0.86731 -41.85,-0.71249 -41.85,0.6609 -41.85,2.11159 -41.85,1.33258 -41.85,-3.07027 -41.85,-0.55247 -41.85,-1.31229 -41.85,-1.8573 -41.85,3.28032 -41.85,-0.14086 -41.85,1.02548 -41.85,-0.91863 -41.85,-2.2816 -41.85,4.19967 -41.85,-2.11718 -41.85,-3.46792 -41.85,4.18026 -41.85,-0.75974 -41.85,-1.54707 -41.85,-1.2697 -41.85,1.25785 -41.85,-1.35802 -41.85,-2.26069 -41.85,3.10525 -41.85,-0.17369 -41.85,-1.12744 -41.85,3.37301 -41.85,-1.79049 -41.85,2.96503 -41.85,-4.9241 -41.85,1.42622 -41.85,3.63447 -41.85,-4.59486 -41.85,0.51128 -41.85,1.79806 -41.85,-3.2294 -41.85,-1.63453 -41.85,0.71299 -41.85,-1.31703 -41.85,2.17418 -41.85,-1.13913 -41.85,2.41388 -41.85,-2.72028 -41.85,2.45549 -41.85,-3.08563 -41.85,3.77836 -41.85,0.96081 -41.85,-2.84116 -41.85,0.94492 -41.85,-1.86038 -41.85,1.40253 -41.85,0.49789 -41.85,-1.90878 -41.85,-1.33955 -41.85,4.17283 -41.85,-5.26055 -41.85,0.94131 -41.85,1.48513 -41.85,-2.73249 -41.85,1.74092 -41.85,0.59071 -41.85,-3.53542 -41.85,4.57457 -41.85,-2.80124 -41.85,2.64795 -41.85,-1.58079 -41.85,-3.40758 -41.85,-0.20203 -41.85,0.33031 -41.85,0.44521 -41.85,3.95363 -41.85,-3.25765 -41.85,-3.35701 -41.85,-0.94437 -41.85,6.12554 -41.85,-2.66684 -41.85,1.23959 -41.85,-4.19581 -41.85,3.93032 -41.85,0.27199 -41.85,-2.76238 -41.85,3.18278 -41.85,-5.63625 -41.85,1.89243 -41.85,2.5612 -41.85,-3.09648 -41.85,-1.17305 -41.85,-2.67466 -41.85,9.32007 -41.85,-8.64045 -41.85,3.33494 -41.85,-4.33184 -41.85,1.91642 -41.85,-0.67417 -41.85,-0.34219 -41.85,-3.48198 -41.85,7.60447 -41.85,-3.33759 -41.85,-0.45775 -41.85,1.22031 -41.85,-4.5681 -41.85,-4.4036 -41.85,3.81859 -41.85,2.9601 -41.85,-3.87481 -41.85,6.66384 -41.85,-4.84219 -41.85,-1.18022 -41.85,8.10829 -41.85,-7.65732 -41.85,-1.61301 -41.85,3.52713 -41.85,-3.1381 -41.85,-1.49648 -41.85,-2.16714 -41.85,0.16925 -41.85,-0.47605 -41.85,2.64768 -41.85,3.50904 -41.85,-9.37571 -41.85,1.33487 -41.85,-0.98201 -41.85,-2.09923 -41.85,-1.14767 -41.85,3.63581 -41.85,-3.84137 -41.85,1.99179 -41.85,-4.6914 -41.85,5.62165 -41.85,-4.06566 -41.85,0.43571 -41.85,-4.62528 -41.85,-1.55073 -41.85,0.57925 -41.85,8.27405 -41.85,-9.24133 -41.85,-0.66544 -41.85,-0.82294 -41.85,0.20415 -41.85,2.96088 -41.85,-3.30642 -41.85,-4.25978 -41.85,-1.34491 -41.85,-5.82613 -41.85,0.10905 -41.85,-0.61894 -41.85,0.90985 -41.85,-2.66403 -41.85,1.9518 -41.85,-4.2041 -41.85,-4.10562 -41.85,-6.06163 -41.85,1.23362 -41.85,3.60242 -41.85,4.94761 -41.85,-12.61176 -41.85,-0.9471 -41.85,-5.33139 -41.85,-0.49245 -41.85,-6.65743 -41.85,0.61166 -41.85,-5.44002 -41.85,-1.93841 -41.85,-12.45395 -41.85,3.98142 -41.85,-12.71982 -41.85,-15.50105 -41.85,6.53967 -41.85002,-6.50214 -41.85,-2.98203 -41.85,-14.76438 -41.85,-3.98469 -41.85,-16.18534 -41.85,-10.6187 -41.85,-12.32143 -41.85,-23.25955 -41.85,-15.23635 -41.85,-12.58095 -41.85,-13.90819 -41.85001,-30.74281 -41.85,-23.84552 -41.85,-23.00228 -41.85,-17.30842 -41.85,-24.23044 -41.85,-1.81974 -41.85,-10.404127 -41.85,-8.496027 -41.85,-3.270633 -41.85,-10.738078 -41.849995,-4.300365 z"
         style="fill:#984ea3;fill-opacity:0.2;fill-rule:nonzero;stroke:#ffffff;stroke-width:1;stroke-linecap:butt;stroke-linejoin:round;stroke-miterlimit:10;stroke-dasharray:none;stroke-opacity:0.2"
         transform="matrix(0.33116,0,0,-0.33116,73.92,265.25067)"
         clip-path="url(#clipPath57)"
         id="path121" /><path
         d="M 80.434375,67.389617 V 66.73125 l 41.849995,4.529939 41.85,18.396483 41.85,58.229338 41.85,95.82798 41.85,83.60502 41.85,58.67692 41.85,25.08013 41.85,23.09935 41.85,12.25867 41.85,12.4981 41.85001,7.31396 41.85,2.45105 41.85,8.57114 41.85,2.34543 41.85,1.11646 41.85,2.69465 41.85,0.53107 41.85,5.70095 41.85,-2.13679 41.85,4.53112 41.85,0.90135 41.85002,0.21385 41.85,0.12283 41.85,0.95671 41.85,0.48211 41.85,1.555 41.85,-2.67363 41.85,1.5849 41.85,3.87323 41.85,-0.97146 41.85,0.78179 41.85,-1.39316 41.85,-0.87202 41.85,-1.05223 41.85,4.03295 41.85,0.13866 41.85,0.10361 41.85,1.35143 41.85,-0.69149 41.85,-0.94703 41.85,2.13385 41.85,0.16205 41.85,-0.34743 41.85,-0.60342 41.85,0.35495 41.85,0.50274 41.85,-0.72522 41.85,0.61138 41.85,0.0631 41.85,1.27711 41.85,-0.54189 41.85,0.49115 41.85,-0.0127 41.85,0.0859 41.85,0.45868 41.85,-0.78274 41.85,-0.14476 41.85,0.52454 41.85,0.44973 41.85,-0.70756 41.85,1.91521 41.85,-0.88657 41.85,0.0777 41.85,0.33075 41.85,-1.11259 41.85,1.59791 41.85,-1.09281 41.85,1.29009 41.85,-1.28505 41.85,0.47844 41.85,0.7167 41.85,-0.73544 41.85,1.10435 41.85,0.94318 41.85,-1.29141 41.85,-0.0506 41.85,0.30105 41.85,0.43038 41.85,-1.04418 41.85,0.74368 41.85,0.11727 41.85,0.57407 41.85,-1.7458 41.85,1.88714 41.85,-0.24635 41.85,0.55353 41.85,-0.90572 41.85,-0.55372 41.85,1.24013 41.85,-2.08607 41.85,-42.05118 41.85,44.67607 41.85,-1.69141 41.85,-0.0152 41.85,0.60441 41.85,-0.26084 41.85,0.40821 41.85,0.74951 41.85,-0.58034 41.85,-0.0528 41.85,0.54344 41.85,-0.16867 41.85,0.6303 41.85,-2.29194 41.85,1.67503 41.85,-0.76675 41.85,0.16751 41.85,-0.0585 41.85,1.06785 41.85,1.2586 41.85,-0.89957 41.85,-0.76083 41.85,0.20698 41.85,-0.41242 41.85,-0.68319 41.85,1.85985 41.85,-0.75715 41.85,0.006 41.85,-0.14057 41.85,0.27904 41.85,-0.80035 41.85,1.10243 41.85,-0.0364 41.85,0.35629 41.85,0.0881 41.85,-0.47725 41.85,-0.18816 41.85,0.12232 41.85,-0.3271 41.85,0.1432 41.85,0.23094 41.85,0.1765 41.85,-0.15048 41.85,1.33251 41.85,-1.33845 41.85,0.31913 41.85,0.3735 41.85,0.33842 41.85,-0.56703 41.85,-1.4985 41.85,1.32063 41.85,-0.32277 41.85,0.41551 41.85,0.49575 41.85,-0.81384 41.85,-0.49501 41.85,1.06811 41.85,-0.32112 41.85,0.65987 41.85,-0.2481 41.85,-1.72425 41.85,1.90528 41.85,-1.2623 41.85,-0.85317 41.85,2.367 41.85,0.0568 41.85,-1.35919 41.85,-0.0671 41.85,0.17632 41.85,1.59839 41.85,-0.96599 41.85,0.36661 41.85,-0.94178 41.85,1.24437 41.85,-1.56369 41.85,1.80596 41.85,-0.76162 41.85,-0.14448 41.85,0.61444 41.85,-0.50152 41.85,-0.19552 41.85,1.01589 41.85,-0.28172 41.85,-0.66682 41.85,-0.48636 41.85,1.09202 41.85,-0.43914 41.85,0.68889 41.85,-0.50424 41.85,0.28003 41.85,0.23788 41.85,-0.33069 41.85,0.69112 41.85,-1.04529 41.85,-0.25262 41.85,0.93593 41.85,-0.22705 41.85,-1.68358 41.85,0.98382 41.85,0.68216 41.85,0.5613 41.85,-0.47902 41.85,0.59337 41.85,-0.01 41.85,-0.27485 41.85,0.006 41.85,0.11597 41.85,-0.56601 41.85,-0.57609 41.85,1.24294 41.85,-0.57198 41.85,0.32537 41.85,0.66751 41.85,-0.42461 41.85,0.47766 41.85,-1.65894 41.85,0.0914 41.85,0.59762 41.85,0.027 41.85,0.17874 41.85,0.0341 41.85,-0.36993 41.85,0.39151 41.85,0.43436 41.85,-0.3791 41.85,-0.16585 41.85,0.37236 41.85,0.0803 41.85,-0.80331 41.85,1.05583 41.85,-1.63492 41.85,0.94257 41.85,-0.51436 41.85,0.53809 41.85,0.0707 41.85,0.04 41.85,-0.46283 41.85,0.5931 41.85,-0.0659 41.85,-0.48226 41.85,0.37986 41.85,0.34242 41.85,-0.31302 41.85,0.72159 41.85,-1.98693 41.85,1.77385 41.85,-0.51219 41.8496,-1.0498 41.85,-0.24733 41.85,1.46421 41.85,-0.36535 41.85,-0.14581 41.85,0.4549 41.85,-0.68569 41.85,0.0967 41.85,0.48396 41.85,0.56457 41.85,-0.8982 41.85,0.0857 41.85,1.00384 41.85,-1.12808 41.85,1.41355 41.85,-0.83382 41.85,0.38597 41.85,0.2432 41.85,-1.52754 41.85,0.15631 41.85,0.69622 41.85,0.43533 41.85,-0.30809 41.85,-0.3134 41.85,0.11853 41.85,-0.1293 41.85,0.0509 41.85,-0.14564 41.85,-0.36111 41.85,1.02297 41.85,-0.57548 41.85,0.76537 41.85,-1.2897 41.85,0.38545 41.85,1.07882 41.85,-1.26982 41.85,1.6851 41.85,-1.60907 41.85,0.52773 41.85,0.36189 41.85,-0.92074 41.85,1.66851 41.85,-1.66346 41.85,1.11953 41.85,-2.33218 41.85,2.35935 41.85,-1.47632 v 2.11807 0 l -41.85,-0.048 -41.85,0.40178 -41.85,0.14344 -41.85,-0.94251 -41.85,0.7568 -41.85,-0.87167 -41.85,0.83016 -41.85,-0.58333 -41.85,-0.67333 -41.85,1.2014 -41.85,-0.82177 -41.85,0.81259 -41.85,-0.48387 -41.85,-0.21446 -41.85,0.78943 -41.85,-0.95327 -41.85,0.89229 -41.85,-0.64046 -41.85,-0.30454 -41.85,0.41788 -41.85,0.57159 -41.85,0.10989 -41.85,-0.54175 -41.85,0.13483 -41.85,-0.36094 -41.85,0.34839 -41.85,-0.29628 -41.85,0.0894 -41.85,0.37221 -41.85,-0.11757 -41.85,0.0791 -41.85,0.80547 -41.85,-0.96585 -41.85,-0.012 -41.85,0.36876 -41.85,-0.49292 -41.85,0.0891 -41.85,0.0695 -41.85,0.0127 -41.85,-0.54122 -41.85,0.57743 -41.85,0.34065 -41.85,-0.59885 -41.85,-0.3368 -41.85,-0.36358 -41.85,0.67615 -41.8496,0.26843 -41.85,-0.50207 -41.85,-0.0609 -41.85,0.62428 -41.85,0.10175 -41.85,0.0912 -41.85,-0.49804 -41.85,-0.16324 -41.85,-0.0759 -41.85,0.43876 -41.85,0.0495 -41.85,-0.16236 -41.85,-0.39259 -41.85,-0.54509 -41.85,0.88728 -41.85,0.18153 -41.85,0.0977 -41.85,-0.0635 -41.85,0.0521 -41.85,-0.30119 -41.85,0.28327 -41.85,-0.84856 -41.85,0.57263 -41.85,0.0552 -41.85,0.47208 -41.85,-1.10021 -41.85,0.72029 -41.85,-0.21294 -41.85,-0.0468 -41.85,0.76323 -41.85,-0.57117 -41.85,-0.7779 -41.85,0.80123 -41.85,-0.1557 -41.85,0.71274 -41.85,-0.11526 -41.85,-0.37635 -41.85,-0.57341 -41.85,-0.11539 -41.85,-0.24092 -41.85,0.68957 -41.85,-0.23164 -41.85,1.06667 -41.85,-1.05829 -41.85,0.15434 -41.85,-1.06741 -41.85,1.19141 -41.85,-0.92811 -41.85,0.1005 -41.85,0.16941 -41.85,0.3641 -41.85,0.66688 -41.85,-0.77492 -41.85,-0.74876 -41.85,0.7518 -41.85,0.11046 -41.85,0.10279 -41.85,0.39336 -41.85,-0.59835 -41.85,-0.21456 -41.85,0.48173 -41.85,-0.0782 -41.85,-0.15873 -41.85,-0.40172 -41.85,0.38478 -41.85,0.17379 -41.85,-0.34463 -41.85,-0.44976 -41.85,0.64844 -41.85,0.0339 -41.85,-0.26317 -41.85,-0.074 -41.85,-0.67247 -41.85,0.70555 -41.85,0.13786 -41.85,-0.91771 -41.85,0.98352 -41.85,0.18532 -41.85,-0.0461 -41.85,-0.44294 -41.85,0.47549 -41.85,-0.31045 -41.85,0.15893 -41.85,-1.42836 -41.85,1.1653 -41.85,-0.31631 -41.85,0.35375 -41.85,0.0456 -41.85,-0.67507 -41.85,0.26166 -41.85,-0.6609 -41.85,0.86273 -41.85,0.15962 -41.85,-0.31236 -41.85,1.22058 -41.85,-1.07822 -41.85,-0.39733 -41.85,-0.0552 -41.85,-0.28399 -41.85,0.99745 -41.85,-0.27944 -41.85,0.37388 -41.85,-1.29836 -41.85,1.66234 -41.85,-1.14814 -41.85,0.13189 -41.85,0.42279 -41.85,-0.2449 -41.85,-1.48153 -41.85,1.45897 -41.85,-0.89552 -41.85,0.41284 -41.85,0.0583 -41.85,-0.24014 -41.85,0.2447 -41.85,-0.426 -41.85,-0.56993 -41.85,1.27262 -41.85,-0.10818 -41.85,0.45408 -41.85,-0.62727 -41.85,-0.0531 -41.85,-0.485 -41.85,0.53259 -41.85,-0.004 -41.85,-1.35998 -41.85,1.91269 -41.85,-0.0843 -41.85,-0.30502 -41.85,0.24057 -41.85,-0.69911 -41.85,0.31434 -41.85,-0.98993 -41.85,-0.0782 -41.85,1.08094 -41.85,-0.32533 -41.85,-0.0733 -41.85,-0.60889 -41.85,1.12007 -41.85,-1.40674 -41.85,0.52701 -41.85,-0.0981 -41.85,0.65656 -41.85,0.44985 -41.85,-1.20872 -41.85,1.74468 -41.85,-2.03404 -41.85,0.36882 -41.85,0.0697 -41.85,-0.74747 -41.85,-0.61732 -41.85,1.45211 -41.85,0.14775 -41.85,-1.23938 -41.85,-0.35424 -41.85,1.22999 -41.85,-0.62722 -41.85,0.61801 -41.85,-1.8103 -41.85,0.93865 -41.85,0.01 -41.85,-0.34707 -41.85,0.29338 -41.85,1.04626 -41.85,-1.40661 -41.85,0.57676 -41.85,-0.17661 -41.85,-0.58809 -41.85,-0.91458 -41.85,1.53316 -41.85,-0.63106 -41.85,-0.44437 -41.85,-0.5495 -41.85,0.10092 -41.85,1.59309 -41.85,-0.85672 -41.85,1.15584 -41.85,-1.6389 -41.85,-0.14334 -41.85,0.19356 -41.85,0.61985 -41.85,-1.54828 -41.85,0.0577 -41.85,-0.10972 -41.85,0.75091 -41.85,-0.75504 -41.85,0.94978 -41.85,-0.57639 -41.85,-0.79822 -41.85,0.084 -41.85,-0.3038 -41.85,1.34272 -41.85,-1.90305 -41.85,1.44798 -41.85,-0.47614 -41.85,0.34077 -41.85,-0.68641 -41.85,-3.16539 -41.85,2.15767 -41.85,0.77348 -41.85,-1.78507 -41.85,-0.16613 -41.85,-0.0602 -41.85,-0.27752 -41.85,-1.43899 -41.85,-0.80745 -41.85,2.39782 -41.85,-2.06534 -41.85,1.43079 -41.85,-0.80848 -41.85,-0.81732 -41.85,0.80611 -41.85,-1.76351 -41.85,-1.49471 -41.85,0.14988 -41.85,-0.786 -41.85002,-1.26732 -41.85,1.77755 -41.85,-2.82327 -41.85,-1.49898 -41.85,-2.52873 -41.85,-1.77195 -41.85,-0.39631 -41.85,-2.32712 -41.85,-3.05903 -41.85,-0.90459 -41.85,-4.8114 -41.85001,-6.98963 -41.85,-7.88683 -41.85,-9.66186 -41.85,-16.30033 -41.85,-26.42113 -41.85,-39.37483 -41.85,-85.36229 -41.85,-111.7335 -41.85,-77.748399 -41.85,-21.234462 -41.849995,-6.306072 z"
         style="fill:#999999;fill-opacity:0.2;fill-rule:nonzero;stroke:#ffffff;stroke-width:1;stroke-linecap:butt;stroke-linejoin:round;stroke-miterlimit:10;stroke-dasharray:none;stroke-opacity:0.2"
         transform="matrix(0.33116,0,0,-0.33116,73.92,265.25067)"
         clip-path="url(#clipPath58)"
         id="path122" /><path
         d="M 80.434375,76.033121 V 73.01011 l 41.849995,43.37571 41.85,59.63175 41.85,55.4313 41.85,54.42006 41.85,43.68149 41.85,22.05398 41.85,25.79775 41.85,10.32392 41.85,17.65454 41.85,14.36453 41.85001,5.50915 41.85,3.46348 41.85,11.18115 41.85,3.25473 41.85,7.80538 41.85,-2.46569 41.85,6.10001 41.85,1.61404 41.85,2.09075 41.85,4.76591 41.85,2.40571 41.85002,0.21653 41.85,1.77659 41.85,-1.80723 41.85,1.00362 41.85,4.20579 41.85,0.53463 41.85,1.38655 41.85,3.26486 41.85,-5.21108 41.85,6.46491 41.85,-3.96369 41.85,5.6431 41.85,0.51679 41.85,-1.4804 41.85,-0.11987 41.85,-1.5712 41.85,1.42047 41.85,1.82216 41.85,-0.13368 41.85,3.0731 41.85,-2.84584 41.85,0.86906 41.85,2.16297 41.85,-1.34343 41.85,1.47326 41.85,-0.93674 41.85,0.18774 41.85,4.06252 41.85,-3.07397 41.85,1.75538 41.85,-0.76054 41.85,-0.35362 41.85,2.09726 41.85,-9.1e-4 41.85,-0.61489 41.85,-0.3849 41.85,0.234 41.85,3.17797 41.85,-3.12072 41.85,3.7765 41.85,-2.68497 41.85,1.39281 41.85,1.12341 41.85,-1.0458 41.85,0.41813 41.85,0.0218 41.85,-0.24145 41.85,0.77456 41.85,-0.70723 41.85,-1.18434 41.85,1.41295 41.85,-1.04345 41.85,0.98076 41.85,2.48152 41.85,-2.03962 41.85,2.27407 41.85,-2.4198 41.85,0.5162 41.85,1.61506 41.85,0.87897 41.85,-2.18777 41.85,3.27686 41.85,-3.31914 41.85,1.8584 41.85,-0.14909 41.85,-0.18886 41.85,0.39459 41.85,-0.67232 41.85,1.52818 41.85,-0.53239 41.85,2.12839 41.85,-3.08208 41.85,2.0383 41.85,-3.15535 41.85,2.24815 41.85,-1.72478 41.85,0.19631 41.85,3.42073 41.85,-0.37956 41.85,0.0328 41.85,-0.66708 41.85,-1.2086 41.85,3.88209 41.85,-2.14182 41.85,-2.19383 41.85,3.26719 41.85,-0.71738 41.85,-0.42026 41.85,1.15705 41.85,-1.3563 41.85,0.68493 41.85,-0.53685 41.85,0.20112 41.85,-0.17127 41.85,1.16248 41.85,1.54911 41.85,-1.79139 41.85,-1.14769 41.85,1.04884 41.85,-0.72739 41.85,1.68332 41.85,-1.7897 41.85,-0.26414 41.85,1.53843 41.85,-2.3548 41.85,0.6666 41.85,0.93168 41.85,2.05867 41.85,-1.05957 41.85,-0.75308 41.85,1.46216 41.85,-0.28419 41.85,1.22001 41.85,-1.61514 41.85,1.97904 41.85,-1.30731 41.85,-0.33841 41.85,0.36163 41.85,0.0881 41.85,1.27843 41.85,-3.6473 41.85,2.17463 41.85,-0.77538 41.85,1.53454 41.85,-0.27753 41.85,-0.87433 41.85,0.5261 41.85,-0.43212 41.85,0.85761 41.85,-0.19402 41.85,0.8698 41.85,-1.92194 41.85,0.76331 41.85,1.10541 41.85,-0.69267 41.85,-0.232 41.85,1.4301 41.85,-1.71688 41.85,1.40726 41.85,-1.47545 41.85,2.1226 41.85,-0.14277 41.85,-2.94398 41.85,4.00965 41.85,-1.2761 41.85,-2.77506 41.85,2.22462 41.85,1.69529 41.85,-3.29053 41.85,1.08904 41.85,-0.44601 41.85,0.86736 41.85,0.72541 41.85,-1.43704 41.85,2.47216 41.85,-1.4833 41.85,-1.62421 41.85,1.95709 41.85,-1.43409 41.85,2.0665 41.85,0.20974 41.85,0.65098 41.85,-1.43879 41.85,1.68777 41.85,-1.59945 41.85,0.58486 41.85,0.21242 41.85,0.69535 41.85,-2.41849 41.85,1.73207 41.85,-0.85542 41.85,-0.52128 41.85,1.67107 41.85,0.63477 41.85,-0.0524 41.85,-2.85811 41.85,2.3284 41.85,-1.33413 41.85,0.9386 41.85,-0.3235 41.85,1.31547 41.85,0.89124 41.85,-1.42945 41.85,-0.18013 41.85,-0.98335 41.85,1.04204 41.85,1.42178 41.85,-0.29379 41.85,1.06396 41.85,-1.69561 41.85,0.0461 41.85,-0.73749 41.85,-0.50474 41.85,0.65403 41.85,2.77457 41.85,-2.38872 41.85,1.47251 41.85,-0.73518 41.85,-0.89646 41.85,0.77339 41.85,-1.56925 41.85,0.89466 41.85,-1.07496 41.85,1.65486 41.85,-2.71786 41.85,1.2385 41.85,2.12795 41.85,-2.45639 41.85,2.01691 41.85,-0.0841 41.85,-0.57231 41.85,1.49025 41.85,-0.16685 41.85,-1.48968 41.85,0.57757 41.85,1.5963 41.8496,-0.30533 41.85,-0.0276 41.85,-1.50993 41.85,-0.2757 41.85,1.50054 41.85,0.089 41.85,-0.77277 41.85,0.68051 41.85,0.13191 41.85,0.25047 41.85,0.47604 41.85,-2.20718 41.85,1.09962 41.85,-0.4078 41.85,0.0486 41.85,0.96633 41.85,-1.26186 41.85,0.21853 41.85,0.10782 41.85,1.10874 41.85,-1.50514 41.85,0.67647 41.85,1.29407 41.85,-0.67539 41.85,-0.40331 41.85,-0.54261 41.85,0.67445 41.85,0.52493 41.85,-1.84803 41.85,2.07549 41.85,-1.37074 41.85,0.86435 41.85,0.0587 41.85,-2.52151 41.85,2.46049 41.85,0.71736 41.85,-2.07025 41.85,1.47215 41.85,-0.629 41.85,-0.55192 41.85,0.0643 41.85,-0.71266 41.85,0.86813 41.85,-0.76142 41.85,0.40695 41.85,0.19751 41.85,1.23307 41.85,0.447 41.85,-0.58276 41.85,0.24086 41.85,-0.29078 41.85,-0.81912 41.85,0.24778 41.85,0.22376 41.85,1.84573 41.85,-1.35661 41.85,-1.0841 41.85,-0.19394 41.85,2.69424 41.85,-2.26517 41.85,3.38736 41.85,-1.97176 41.85,-0.74564 41.85,-0.0866 41.85,0.58713 41.85,-0.55618 v 3.50765 0 l -41.85,-0.23752 -41.85,-0.0904 -41.85,1.43496 -41.85,-2.4214 -41.85,1.78717 -41.85,-1.55858 -41.85,1.20949 -41.85,-0.69259 -41.85,0.0297 -41.85,0.36109 -41.85,0.99918 -41.85,-1.40429 -41.85,0.37622 -41.85,-1.51691 -41.85,0.92637 -41.85,-0.07 -41.85,-0.17003 -41.85,0.81247 -41.85,-1.09085 -41.85,1.19596 -41.85,-1.04079 -41.85,-0.71074 -41.85,1.64472 -41.85,-2.32449 -41.85,1.81511 -41.85,-0.94308 -41.85,0.005 -41.85,0.50268 -41.85,-0.81448 -41.85,0.74215 -41.85,-0.17365 -41.85,-1.22619 -41.85,2.32517 -41.85,0.0144 -41.85,-1.5531 -41.85,0.94642 -41.85,-0.14313 -41.85,1.4879 -41.85,-0.77917 -41.85,-0.20452 -41.85,-1.70221 -41.85,2.12409 -41.85,-0.14039 -41.85,-1.16524 -41.85,0.14554 -41.85,-0.85046 -41.85,-0.62975 -41.85,0.25949 -41.85,0.48999 -41.85,1.34047 -41.85,-1.0785 -41.85,-0.18242 -41.85,0.84043 -41.85,-0.97062 -41.85,0.80753 -41.85,-0.63988 -41.85,-0.0997 -41.85,0.039 -41.85,1.70071 -41.85,-1.69642 -41.85,1.13136 -41.85,-0.74625 -41.85,0.26146 -41.85,-0.50622 -41.85,-0.37563 -41.8496,0.87698 -41.85,0.85147 -41.85,-1.67294 -41.85,0.50152 -41.85,0.14618 -41.85,-2.41548 -41.85,1.76332 -41.85,0.3581 -41.85,-0.90162 -41.85,1.14553 -41.85,-1.25067 -41.85,-0.22618 -41.85,-0.0434 -41.85,0.0472 -41.85,0.56856 -41.85,-0.60286 -41.85,0.44178 -41.85,-0.0296 -41.85,0.84316 -41.85,0.33963 -41.85,-1.55954 -41.85,1.78799 -41.85,-2.50738 -41.85,-0.17587 -41.85,2.72636 -41.85,-1.02864 -41.85,-0.9002 -41.85,1.37912 -41.85,-1.95022 -41.85,2.44559 -41.85,-0.89181 -41.85,-0.0539 -41.85,0.71022 -41.85,-0.53727 -41.85,-0.10478 -41.85,-0.5792 -41.85,-0.97246 -41.85,1.02447 -41.85,-1.64473 -41.85,1.73333 -41.85,-2.35353 -41.85,2.667 -41.85,-0.5723 -41.85,-0.53048 -41.85,-0.49546 -41.85,1.87363 -41.85,-1.86575 -41.85,0.588 -41.85,0.89114 -41.85,-1.09738 -41.85,0.31832 -41.85,0.21916 -41.85,-0.30417 -41.85,-0.9576 -41.85,1.07447 -41.85,-0.60685 -41.85,-0.0439 -41.85,-1.60464 -41.85,1.17062 -41.85,-0.77464 -41.85,-0.54319 -41.85,3.66329 -41.85,-2.40748 -41.85,0.30202 -41.85,-0.91526 -41.85,-0.0938 -41.85,0.66507 -41.85,-0.11114 -41.85,1.30352 -41.85,-2.06541 -41.85,-1.63118 -41.85,2.01436 -41.85,1.39646 -41.85,-1.35232 -41.85,-0.11829 -41.85,2.3104 -41.85,-3.41668 -41.85,1.81895 -41.85,-1.73155 -41.85,1.51 -41.85,-0.065 -41.85,0.66158 -41.85,-1.22637 -41.85,-0.30909 -41.85,-0.14978 -41.85,1.76242 -41.85,-0.88421 -41.85,-0.15869 -41.85,0.83233 -41.85,0.38482 -41.85,-1.14324 -41.85,0.63409 -41.85,-1.90204 -41.85,1.93861 -41.85,-2.16377 -41.85,1.86221 -41.85,-1.28971 -41.85,0.28466 -41.85,0.61308 -41.85,-2.46423 -41.85,2.09237 -41.85,0.59756 -41.85,-1.06523 -41.85,0.075 -41.85,-0.52745 -41.85,-0.7697 -41.85,0.35831 -41.85,0.73532 -41.85,0.33329 -41.85,-1.85691 -41.85,1.62139 -41.85,-2.18864 -41.85,0.86769 -41.85,-0.96424 -41.85,0.91481 -41.85,1.88109 -41.85,-0.0679 -41.85,-1.56675 -41.85,-1.08592 -41.85,0.12944 -41.85,3.36226 -41.85,-3.45008 -41.85,0.6947 -41.85,1.53479 -41.85,-1.77038 -41.85,-0.7912 -41.85,1.96171 -41.85,-0.30476 -41.85,-1.00423 -41.85,0.70232 -41.85,-0.0637 -41.85,0.6034 -41.85,-0.88105 -41.85,0.65409 -41.85,-2.28598 -41.85,-0.52097 -41.85,3.60123 -41.85,-1.07585 -41.85,-0.58647 -41.85,0.24712 -41.85,-1.69716 -41.85,2.18644 -41.85,-2.67775 -41.85,2.10783 -41.85,-1.80781 -41.85,0.63744 -41.85,-0.86523 -41.85,1.88348 -41.85,-0.0564 -41.85,0.20066 -41.85,-1.08412 -41.85,0.85404 -41.85,-2.68151 -41.85,0.90646 -41.85,1.01072 -41.85,-2.47732 -41.85,1.09048 -41.85,-0.23894 -41.85,-0.33903 -41.85,-0.64698 -41.85,0.41859 -41.85,-1.34407 -41.85,1.07411 -41.85,3.23485 -41.85,-4.79361 -41.85,0.89526 -41.85,-1.10481 -41.85,1.99403 -41.85,-0.65083 -41.85,-0.56302 -41.85,-0.62862 -41.85,1.21157 -41.85,-0.16218 -41.85,1.45788 -41.85,-2.12671 -41.85,-1.12685 -41.85,0.82163 -41.85,-2.3596 -41.85,2.57732 -41.85,-1.49372 -41.85,0.38305 -41.85,0.13585 -41.85,-0.72329 -41.85,-0.11586 -41.85,-1.29068 -41.85,1.02329 -41.85,0.41523 -41.85,-2.66988 -41.85,1.98718 -41.85,-1.116 -41.85,0.80402 -41.85,-0.61013 -41.85,-1.40022 -41.85,0.56974 -41.85,-2.11972 -41.85,-2.0995 -41.85,4.59276 -41.85,-3.0165 -41.85,-0.17908 -41.85,-1.29418 -41.85,0.70833 -41.85,0.23608 -41.85,0.34962 -41.85,-0.13391 -41.85,-2.80516 -41.85,-1.47604 -41.85,2.3048 -41.85,-4.65924 -41.85,1.50274 -41.85,-0.10296 -41.85,-0.52765 -41.85,-0.0955 -41.85,-2.36082 -41.85,2.36254 -41.85,-6.14548 -41.85,-2.23944 -41.85002,4.23949 -41.85,-6.39403 -41.85,-0.36377 -41.85,0.73151 -41.85,-7.81492 -41.85,-2.0648 -41.85,-2.82966 -41.85,-2.60214 -41.85,-8.95575 -41.85,-1.34757 -41.85,-9.89691 -41.85001,-10.24325 -41.85,-4.18183 -41.85,-17.39388 -41.85,-15.1188 -41.85,-21.58625 -41.85,-20.33289 -41.85,-29.52063 -41.85,-52.16956 -41.85,-64.65563 -41.85,-71.14186 -41.849995,-50.617739 z"
         style="fill:#e41a1c;fill-opacity:0.2;fill-rule:nonzero;stroke:#ffffff;stroke-width:1;stroke-linecap:butt;stroke-linejoin:round;stroke-miterlimit:10;stroke-dasharray:none;stroke-opacity:0.2"
         transform="matrix(0.33116,0,0,-0.33116,73.92,265.25067)"
         clip-path="url(#clipPath59)"
         id="path123" /><path
         d="m 80.434375,70.804882 41.849995,90.817168 41.85,156.82029 41.85,76.15995 41.85,28.43037 41.85,25.32414 41.85,9.50341 41.85,5.79095 41.85,5.04779 41.85,10.23991 41.85,2.80886 41.85001,-0.13715 41.85,2.69818 41.85,1.07428 41.85,4.52528 41.85,-1.01599 41.85,-0.20715 41.85,1.12362 41.85,1.48365 41.85,2.71028 41.85,1.13323 25.7,-1.90712 v 0"
         style="fill:none;stroke:#377eb8;stroke-width:2;stroke-linecap:round;stroke-linejoin:round;stroke-miterlimit:10;stroke-dasharray:none;stroke-opacity:1"
         transform="matrix(0.33116,0,0,-0.33116,73.92,265.25067)"
         clip-path="url(#clipPath60)"
         id="path124" /><path
         d="m 80.434375,70.174743 41.849995,62.360997 41.85,120.60967 41.85,76.25884 41.85,41.47431 41.85,33.07086 41.85,18.29588 41.85,18.9199 41.85,5.27542 41.85,6.28709 41.85,10.29672 41.85001,3.41656 41.85,0.68224 41.85,3.62136 41.85,4.35679 41.85,-0.17269 41.85,0.60074 41.85,2.0754 41.85,1.23566 41.85,1.57401 41.85,-0.1552 25.7,2.35137 v 0"
         style="fill:none;stroke:#a65628;stroke-width:2;stroke-linecap:round;stroke-linejoin:round;stroke-miterlimit:10;stroke-dasharray:none;stroke-opacity:1"
         transform="matrix(0.33116,0,0,-0.33116,73.92,265.25067)"
         clip-path="url(#clipPath61)"
         id="path125" /><path
         d="m 80.434375,67.591739 41.849995,3.082741 41.85,9.236729 41.85,2.457076 41.85,10.032121 41.85,7.458774 41.85,4.69343 41.85,16.72932 41.85,19.42855 41.85,24.55874 41.85,22.63353 41.85001,28.99874 41.85,15.04022 41.85,15.45843 41.85,14.68568 41.85,15.83528 41.85,18.56607 41.85,11.07106 41.85,9.00022 41.85,11.17194 41.85,15.43102 25.7,-0.46531 v 0"
         style="fill:none;stroke:#984ea3;stroke-width:2;stroke-linecap:round;stroke-linejoin:round;stroke-miterlimit:10;stroke-dasharray:none;stroke-opacity:1"
         transform="matrix(0.33116,0,0,-0.33116,73.92,265.25067)"
         clip-path="url(#clipPath62)"
         id="path126" /><path
         d="m 80.434375,67.058337 41.849995,5.385488 41.85,19.784701 41.85,68.054254 41.85,103.69765 41.85,84.58423 41.85,47.83423 41.85,29.3199 41.85,17.56171 41.85,10.64992 41.85,10.97114 41.85001,6.34389 41.85,4.81321 41.85,3.69579 41.85,2.39998 41.85,1.85724 41.85,1.59772 41.85,1.20875 41.85,4.16516 41.85,0.0391 41.85,2.82153 25.7,0.008 v 0"
         style="fill:none;stroke:#999999;stroke-width:2;stroke-linecap:round;stroke-linejoin:round;stroke-miterlimit:10;stroke-dasharray:none;stroke-opacity:1"
         transform="matrix(0.33116,0,0,-0.33116,73.92,265.25067)"
         clip-path="url(#clipPath63)"
         id="path127" /><path
         d="m 80.434375,74.511005 41.849995,47.007335 41.85,65.3868 41.85,59.1718 41.85,55.87672 41.85,33.97052 41.85,22.64134 41.85,23.03771 41.85,12.75353 41.85,16.93379 41.85,9.94456 41.85001,7.37718 41.85,7.60677 83.7,12.06075 41.85,4.97685 41.85,0.40592 41.85,4.06636 41.85,4.30819 41.85,1.67867 41.85,1.98194 25.7,2.643 v 0"
         style="fill:none;stroke:#e41a1c;stroke-width:2;stroke-linecap:round;stroke-linejoin:round;stroke-miterlimit:10;stroke-dasharray:none;stroke-opacity:1"
         transform="matrix(0.33116,0,0,-0.33116,73.92,265.25067)"
         clip-path="url(#clipPath64)"
         id="path128" /><path
         d="m 917.43438,66.73125 v 446.4"
         style="fill:none;stroke:#cccccc;stroke-width:1.25;stroke-linecap:square;stroke-linejoin:miter;stroke-miterlimit:10;stroke-dasharray:none;stroke-opacity:1"
         transform="matrix(0.33116,0,0,-0.33116,73.92,265.25067)"
         clip-path="url(#clipPath65)"
         id="path129" /><path
         d="M 80.434375,66.73125 H 917.43438"
         style="fill:none;stroke:#cccccc;stroke-width:1.25;stroke-linecap:square;stroke-linejoin:miter;stroke-miterlimit:10;stroke-dasharray:none;stroke-opacity:1"
         transform="matrix(0.33116,0,0,-0.33116,73.92,265.25067)"
         clip-path="url(#clipPath66)"
         id="path130" /><path
         d="M 80.434375,513.13125 H 917.43438"
         style="fill:none;stroke:#cccccc;stroke-width:1.25;stroke-linecap:square;stroke-linejoin:miter;stroke-miterlimit:10;stroke-dasharray:none;stroke-opacity:1"
         transform="matrix(0.33116,0,0,-0.33116,73.92,265.25067)"
         clip-path="url(#clipPath67)"
         id="path131" /><path
         d="m 80.434375,66.73125 v 446.4"
         style="fill:none;stroke:#cccccc;stroke-width:1.25;stroke-linecap:square;stroke-linejoin:miter;stroke-miterlimit:10;stroke-dasharray:none;stroke-opacity:1"
         transform="matrix(0.33116,0,0,-0.33116,73.92,265.25067)"
         clip-path="url(#clipPath68)"
         id="path132" /><path
         d="M 713.51562,77.73125 H 906.43438 V 245.81562 H 713.51562 Z"
         style="fill:#ffffff;fill-opacity:1;fill-rule:nonzero;stroke:#cccccc;stroke-width:1;stroke-linecap:butt;stroke-linejoin:miter;stroke-miterlimit:10;stroke-dasharray:none;stroke-opacity:1"
         transform="matrix(0.33116,0,0,-0.33116,73.92,265.25067)"
         clip-path="url(#clipPath69)"
         id="path133" /><path
         d="m 728.91562,227.99687 h 30.8"
         style="fill:none;stroke:#377eb8;stroke-width:2;stroke-linecap:round;stroke-linejoin:round;stroke-miterlimit:10;stroke-dasharray:none;stroke-opacity:1"
         transform="matrix(0.33116,0,0,-0.33116,73.92,265.25067)"
         clip-path="url(#clipPath70)"
         id="path134" /><text
         xml:space="preserve"
         transform="matrix(0.33116,0,0,0.33116,333.5215,192.29715)"
         clip-path="url(#clipPath71)"
         id="text134"><tspan
           style="font-variant:normal;font-weight:normal;font-size:22px;font-family:'Big Caslon';writing-mode:lr-tb;fill:#262626;fill-opacity:1;fill-rule:nonzero;stroke:none"
           x="0 17.347 33 48.73 55.890999 64.68 79.013 86.174004 93.334999 107.668"
           y="0"
           sodipodi:role="line"
           id="tspan134">DRC (3, 3)</tspan></text><path
         d="m 728.91562,195.7 h 30.8"
         style="fill:none;stroke:#a65628;stroke-width:2;stroke-linecap:round;stroke-linejoin:round;stroke-miterlimit:10;stroke-dasharray:none;stroke-opacity:1"
         transform="matrix(0.33116,0,0,-0.33116,73.92,265.25067)"
         clip-path="url(#clipPath72)"
         id="path135" /><text
         xml:space="preserve"
         transform="matrix(0.33116,0,0,0.33116,333.5215,202.99259)"
         clip-path="url(#clipPath73)"
         id="text135"><tspan
           style="font-variant:normal;font-weight:normal;font-size:22px;font-family:'Big Caslon';writing-mode:lr-tb;fill:#262626;fill-opacity:1;fill-rule:nonzero;stroke:none"
           x="0 17.347 33 48.73 55.890999 64.68 79.013 86.174004 93.334999 107.668"
           y="0"
           sodipodi:role="line"
           id="tspan135">DRC (2, 2)</tspan></text><path
         d="m 728.91562,163.40312 h 30.8"
         style="fill:none;stroke:#984ea3;stroke-width:2;stroke-linecap:round;stroke-linejoin:round;stroke-miterlimit:10;stroke-dasharray:none;stroke-opacity:1"
         transform="matrix(0.33116,0,0,-0.33116,73.92,265.25067)"
         clip-path="url(#clipPath74)"
         id="path136" /><text
         xml:space="preserve"
         transform="matrix(0.33116,0,0,0.33116,333.5215,213.68802)"
         clip-path="url(#clipPath75)"
         id="text136"><tspan
           style="font-variant:normal;font-weight:normal;font-size:22px;font-family:'Big Caslon';writing-mode:lr-tb;fill:#262626;fill-opacity:1;fill-rule:nonzero;stroke:none"
           x="0 17.347 33 48.73 55.890999 64.68 79.013 86.174004 93.334999 107.668"
           y="0"
           sodipodi:role="line"
           id="tspan136">DRC (1, 1)</tspan></text><path
         d="m 728.91562,131.10625 h 30.8"
         style="fill:none;stroke:#999999;stroke-width:2;stroke-linecap:round;stroke-linejoin:round;stroke-miterlimit:10;stroke-dasharray:none;stroke-opacity:1"
         transform="matrix(0.33116,0,0,-0.33116,73.92,265.25067)"
         clip-path="url(#clipPath76)"
         id="path137" /><text
         xml:space="preserve"
         transform="matrix(0.33116,0,0,0.33116,333.5215,224.38345)"
         clip-path="url(#clipPath77)"
         id="text137"><tspan
           style="font-variant:normal;font-weight:normal;font-size:22px;font-family:'Big Caslon';writing-mode:lr-tb;fill:#262626;fill-opacity:1;fill-rule:nonzero;stroke:none"
           x="0 17.347 33 48.73 55.890999 64.68 79.013 86.174004 93.334999 107.668"
           y="0"
           sodipodi:role="line"
           id="tspan137">DRC (9, 1)</tspan></text><path
         d="m 728.91562,98.809375 h 30.8"
         style="fill:none;stroke:#e41a1c;stroke-width:2;stroke-linecap:round;stroke-linejoin:round;stroke-miterlimit:10;stroke-dasharray:none;stroke-opacity:1"
         transform="matrix(0.33116,0,0,-0.33116,73.92,265.25067)"
         clip-path="url(#clipPath78)"
         id="path138" /><text
         xml:space="preserve"
         transform="matrix(0.33116,0,0,0.33116,333.5215,235.07889)"
         clip-path="url(#clipPath79)"
         id="text138"><tspan
           style="font-variant:normal;font-weight:normal;font-size:22px;font-family:'Big Caslon';writing-mode:lr-tb;fill:#262626;fill-opacity:1;fill-rule:nonzero;stroke:none"
           x="0 17.347 33 48.73 55.890999 64.68 79.013 86.174004 93.334999 107.668"
           y="0"
           sodipodi:role="line"
           id="tspan138">DRC (1, 9)</tspan></text></g></g></svg>
